<?xml version="1.0" encoding="UTF-8"?>
<svg id="Layer_1" xmlns="http://www.w3.org/2000/svg" version="1.1" viewBox="0 0 3840 3840">
  <!-- Generator: Adobe Illustrator 30.2.1, SVG Export Plug-In . SVG Version: 2.1.1 Build 1)  -->
  <defs>
    <style>
      .st0 {
        fill: #f0b6c0;
      }

      .st1 {
        fill: #a10923;
      }

      .st2 {
        fill: #d2d2d2;
      }

      .st3 {
        fill: #b5b5b5;
      }

      .st4 {
        fill: #efefef;
      }

      .st5 {
        fill: #79071a;
      }

      .st6 {
        fill: #b80a27;
      }

      .st7 {
        fill: #2e7233;
      }

      .st8 {
        fill: #efafba;
      }

      .st9 {
        fill: #ecc1c8;
      }

      .st10 {
        fill: #a0a0a0;
      }

      .st11 {
        fill: #96081f;
      }

      .st12 {
        fill: #c6c6c6;
      }

      .st13 {
        fill: #e7e7e7;
      }

      .st14 {
        fill: #28632c;
      }

      .st15 {
        fill: #fff;
      }

      .st16 {
        fill: #e49aa6;
      }

      .st17 {
        fill: #ec98a6;
      }

      .st18 {
        fill: #e67a8c;
      }

      .st19 {
        fill: #e88595;
      }

      .st20 {
        fill: #959595;
      }

      .st21 {
        fill: #f7f7f7;
      }

      .st22 {
        fill: #8a071d;
      }

      .st23 {
        fill: #225325;
      }

      .st24 {
        fill: #eda2af;
      }

      .st25 {
        fill: #1f4d22;
      }

      .st26 {
        fill: #327b37;
      }

      .st27 {
        fill: #ea8e9d;
      }

      .st28 {
        fill: #83071b;
      }
    </style>
  </defs>
  <path class="st15" d="M0,0h3840v3840H0V0ZM166.01,1243.89c-.21-.08-1.87,1.46-1.85,2.25l.05,3.4c-83.81,210.19-122.68,439.09-124.45,666.2-1.81,232.52,42.91,461.32,124.5,676.24,118.52,312.21,321.61,589.5,582.76,798.46,686,548.89,1662.27,548.59,2348.62.3,261.35-208.78,464.29-486.59,582.79-798.61,85.37-224.77,130.31-465.1,124.62-708.15-5.09-217.48-45.63-432.66-123.57-634.54-87.01-225.36-214.94-432.69-380.67-610.02C2935.51,250.7,2437.57,36.01,1908.33,38.66c-416.46,2.08-760.87,133.18-1118.56,372.43-226.13,151.25-540.34,579.86-623.76,832.8Z"/>
  <path class="st25" d="M211.6,2590.88l26.48,1.08c1.33,6.9,3.36,14.23,6.51,21.35l34.48,77.99,33.65,68.11c3.54,7.16,7.29,13.88,11.14,20.72l13.89,24.69c64.96,115.53,140.67,223.56,229.47,321.87l22.84,25.28,31.06,32.94c10.89,11.55,22.28,22.74,33.83,33.71l35.09,33.34,21.95,20.1,17.99,15.97c46.81,41.56,94.97,79.93,146.67,115.13l27.44,18.69,26.25,17.76c34.51,23.34,69.54,43.68,105.97,63.71l45.36,24.94c18.52,10.18,36.4,18.86,55.94,27.94,79.07,36.74,158.87,69.3,242.72,95.17,120.99,37.32,243.81,63.3,369.43,74.65l24.31,2.2,27.92,2.14c9.35.72,18.42.73,28.08,1.49l20.2,1.6,137.75.37,13.73-2.13c12.58-1.95,24.14-.27,36.43-1.22l30.1-2.35c181.46-14.14,386.5-64.12,554.77-135.45,25.82-10.95,50.91-21.63,76.04-34.13l63.93-31.8c11.92-5.93,23.55-12.34,35.19-18.8l28.25-15.68,16.79-9.57c90.38-51.53,174.41-112.34,252.9-180.47l14.04-12.19,16.98-15,19.81-18.01,28.29-26.54c19.06-17.87,37.52-36.28,55.34-55.37l25.37-27.19,20.89-23.04c55.17-60.84,105.06-124.75,150.05-193.5l27.82-42.51c29.72-45.42,54.74-91.55,80.28-139.86,25.76-48.7,46.51-98.81,67.92-149.54.64-1.51.94-6.56.99-7.47l34.02-.97,40.49,1.11c-118.5,312.01-321.44,589.83-582.79,798.61-686.35,548.29-1662.62,548.59-2348.62-.3-261.16-208.96-464.24-486.26-582.76-798.46l47.33-1.1Z"/>
  <path class="st5" d="M3679.49,1249.44l-39.38-.15c-21.72-59.67-51.05-122.72-81.1-180.15l-15.15-28.95c-53.27-101.82-146.18-234.53-222.05-321.79l-14.96-17.21-16.03-17.95c-7.07-7.91-13.28-15.47-21.49-22.62-4.43-3.85-7.98-9.89-12.05-14.13-19.74-20.55-39.16-40.34-60-59.68l-26.05-24.16-20.69-18.85-18.36-15.98c-103.25-89.88-215.39-167.17-336.05-232.07-34.55-18.58-67.14-35.31-102.93-51.43-68.75-30.97-137.95-58.77-210.07-81.76-116.05-37-233.2-64.24-354.03-75.71l-57.29-5.44-31.59-2.39c-8.08-.61-15.89-.68-24.26-1.25l-24-1.65-145.56.48c-159.71.52-317.08,29.93-468.79,80.61l-88.75,29.65c-57.66,19.26-170.16,69.81-224.75,99.2-129.87,69.92-246.53,147.1-357.33,244.83l-18.01,15.88-22.12,19.92-25.56,24.69c-21.1,20.38-41.54,40.53-61.59,61.96l-25.29,27.03-15.87,17.99-12.16,13.95c-47.46,54.42-91.11,110.21-131.25,170.46-36.17,54.29-71.63,107.09-100.78,165.45l-47.4,94.91c-10.79,21.6-38.62,84-42.75,105.88l-39.76.51-.05-3.4c.21-.03,1.6-1.5,1.85-2.25,83.43-252.94,397.64-681.55,623.76-832.8C1147.47,171.83,1491.87,40.74,1908.33,38.66c529.23-2.65,1027.17,212.04,1390.48,600.76,165.73,177.32,293.66,384.66,380.67,610.02Z"/>
  <path class="st20" d="M203.97,1249.02l7.91.86c-60.24,161.15-105.04,335.4-118.59,507.9l-2.22,28.25-2.04,30.04c-.91,13.41-1.6,26.22-1.28,39.94.25,10.91-1.03,21.28-1.57,31.95-1.14,22.74-1.17,45.28.07,67.92.59,10.8,1.67,21.11,1.45,32.12-.26,12.99.49,25.18,1.35,37.91l2.02,30.03,2.3,28.14c14.34,175.1,56.68,343.55,118.22,506.8l-47.33,1.1c-81.59-214.92-126.31-443.72-124.5-676.24,1.77-227.11,40.64-456.01,124.45-666.2l39.76-.51Z"/>
  <path class="st20" d="M3679.49,1249.44c77.94,201.88,118.48,417.06,123.57,634.54,5.69,243.05-39.25,483.38-124.62,708.15l-40.49-1.11,20.68-56.71,20.63-61.8c38.85-116.37,62.53-236.41,74.39-358.59l2.13-21.95,1.98-22.04,1.94-23.98,1.99-33.85,1.78-40.93c1.45-33.36,1.55-66.99.02-100.31l-1.88-41.04-1.97-33.84-2-23.88-2.2-23.96c-15.81-171.83-56.8-337.83-117.42-498.33l2.08-.51,39.38.15Z"/>
  <path class="st22" d="M164.16,1246.14c-.01-.79,1.64-2.33,1.85-2.25-.25.75-1.64,2.22-1.85,2.25Z"/>
  <path class="st23" d="M272.13,2590.9c14.69-.46,40.7.66,54.26-.05,1.92-.1,5.71,1,7.62,1.06,56.46,162.57,200.8,374.9,319.59,500.29l33.17,35.01c8.47,8.94,17.05,17.57,26.02,26.04l36.03,34.05c280.44,265.06,675.16,433.62,1060.82,455.53l43.9,2.49c101.58,5.77,203.02-1.2,304.67-15.13,195.06-26.74,383.73-87.07,558.28-177.51,135.78-70.35,262.06-157.16,372.7-261.07l27.03-25.39c18-16.91,35.23-33.86,52.03-51.98l26.06-28.1c125.67-135.51,248.62-321.88,315.79-494.24l64.28-.95,29.54,1.02c-.05.92-.36,5.96-.99,7.47-21.4,50.73-42.16,100.84-67.92,149.54-25.55,48.31-50.56,94.44-80.28,139.86l-27.82,42.51c-44.99,68.75-94.89,132.66-150.05,193.5l-20.89,23.04-25.37,27.19c-17.82,19.1-36.28,37.5-55.34,55.37l-28.29,26.54-19.81,18.01-16.98,15-14.04,12.19c-78.49,68.14-162.53,128.94-252.9,180.47l-16.79,9.57-28.25,15.68c-11.64,6.46-23.27,12.87-35.19,18.8l-63.93,31.8c-25.12,12.5-50.21,23.18-76.04,34.13-168.27,71.34-373.31,121.32-554.77,135.45l-30.1,2.35c-12.28.96-23.85-.72-36.43,1.22l-13.73,2.13-137.75-.37-20.2-1.6c-9.66-.77-18.73-.78-28.08-1.49l-27.92-2.14-24.31-2.2c-125.62-11.35-248.45-37.33-369.43-74.65-83.86-25.87-163.66-58.43-242.72-95.17-19.54-9.08-37.42-17.76-55.94-27.94l-45.36-24.94c-36.43-20.03-71.46-40.37-105.97-63.71l-26.25-17.76-27.44-18.69c-51.7-35.2-99.86-73.57-146.67-115.13l-17.99-15.97-21.95-20.1-35.09-33.34c-11.55-10.97-22.94-22.16-33.83-33.71l-31.06-32.94-22.84-25.28c-88.8-98.31-164.5-206.34-229.47-321.87l-13.89-24.69c-3.85-6.84-7.6-13.56-11.14-20.72l-33.65-68.11-34.48-77.99c-3.15-7.12-5.18-14.45-6.51-21.35l34.06-1.06Z"/>
  <path class="st10" d="M3592.46,1248.9l45.56.91c60.61,160.5,101.61,326.5,117.42,498.33l2.2,23.96,2,23.88,1.97,33.84,1.88,41.04c1.53,33.33,1.43,66.96-.02,100.31l-1.78,40.93-1.99,33.85-1.94,23.98-1.98,22.04-2.13,21.95c-11.86,122.18-35.54,242.22-74.39,358.59l-20.63,61.8-20.68,56.71-34.02.97-29.54-1.02c64.85-175.84,97.8-297.83,119.71-485.08l2.34-19.99,1.81-23.72,1.97-28.07,2.19-32.03c1.31-19.09-.8-37.75,1.5-56.64,1.88-15.42,1.88-31.64.31-47.14-3.04-29.91-.32-32.06-1.88-56.34l-2.19-34.13-1.98-27.73-1.97-24.03-2.14-19.96c-17.94-167.47-59.09-330.78-122.11-486.17l20.51-1.03Z"/>
  <path class="st10" d="M249.56,1248.76l24.64,1.06c-63.61,162.53-108.26,331.38-122.77,506.47l-2.15,25.9-1.79,24.78c-3.62,50-4,143.33-1.77,194.24,8.59,196.83,50.1,389.3,122.46,572.23,2.66,6.71,4.15,11.66,3.96,17.47l-34.06,1.06-26.48-1.08c-61.54-163.26-103.88-331.71-118.22-506.8l-2.3-28.14-2.02-30.03c-.86-12.73-1.61-24.91-1.35-37.91.22-11.01-.86-21.32-1.45-32.12-1.24-22.64-1.21-45.18-.07-67.92.54-10.67,1.82-21.04,1.57-31.95-.32-13.72.37-26.53,1.28-39.94l2.04-30.04,2.22-28.25c13.55-172.5,58.35-346.75,118.59-507.9l37.69-1.12Z"/>
  <path class="st28" d="M3640.1,1249.29l-2.08.51-45.56-.91c-67.39-185.2-208.93-403.01-343.21-546.06l-27.32-29.1c-16.07-17.12-32.51-33.73-49.73-49.81l-32.34-30.19c-113.05-105.55-238.76-196.57-377.42-265.87l-66.96-33.47c-237.44-118.68-574.28-187.87-837.91-173.94l-47.52,2.51-28.17,1.99-23.95,2-22.28,2.13c-174.89,16.74-374.61,69.21-535.98,140.45l-20.87,9.21-19.2,8.83-93.31,47.01c-127,63.98-242.02,147.54-346.36,243.03l-24.23,22.17-32.85,31.15c-10.22,9.69-20.32,19.61-30.03,29.88l-23.61,24.96c-152.25,161.01-278.36,357.19-359.67,562.99l-37.69,1.12-7.91-.86c4.13-21.88,31.97-84.28,42.75-105.88l47.4-94.91c29.15-58.36,64.62-111.16,100.78-165.45,40.14-60.26,83.8-116.05,131.25-170.46l12.16-13.95,15.87-17.99,25.29-27.03c20.05-21.43,40.49-41.58,61.59-61.96l25.56-24.69,22.12-19.92,18.01-15.88c110.8-97.73,227.46-174.91,357.33-244.83,54.59-29.39,167.09-79.94,224.75-99.2l88.75-29.65c151.71-50.69,309.08-80.09,468.79-80.61l145.56-.48,24,1.65c8.37.57,16.18.64,24.26,1.25l31.59,2.39,57.29,5.44c120.84,11.47,237.99,38.71,354.03,75.71,72.11,22.99,141.32,50.79,210.07,81.76,35.79,16.12,68.38,32.85,102.93,51.43,120.67,64.9,232.81,142.19,336.05,232.07l18.36,15.98,20.69,18.85,26.05,24.16c20.85,19.34,40.27,39.13,60,59.68,4.07,4.24,7.62,10.28,12.05,14.13,8.22,7.14,14.43,14.71,21.49,22.62l16.03,17.95,14.96,17.21c75.87,87.26,168.78,219.97,222.05,321.79l15.15,28.95c30.05,57.43,59.38,120.49,81.1,180.15Z"/>
  <path class="st14" d="M399.63,2590.96c13.11-.19,36.4.71,48.51-.07,1.45-.09,4.28.68,5.73,1,59.51,134.78,137.43,263.75,236.07,373.73l11.65,12.99,15.03,16.84,17.91,20.06,29.15,30.49c10.65,11.14,21.12,21.74,32.32,32.38l34.51,32.76,17.99,16.12,11.98,10.65c105.51,93.77,222.85,172.39,350.7,232.55l40.01,18.83c163.24,76.82,338.79,124.39,519.04,138.11l25.99,1.98,26.36,1.89c10.73.77,22.26-.19,32.98,1.26,6.58.89,11.87,1.25,18.49,1.25h93.85c6.63,0,11.91-.36,18.49-1.26,10.71-1.47,22.25-.46,32.97-1.24l26.37-1.93,25.98-2.04c115.25-9.04,228.59-33.17,339.03-68.28,139.19-44.25,270.32-106.04,392.2-185.96,70.5-46.23,137.02-96.42,198.77-153.15l27.29-25.08,39.81-38,25.05-26.84,29.05-31.32c98.39-106.11,204.89-268.27,263.96-399.98.68-1.53,1.09-5.5,1.24-7.09l57.88-.69,53.95.07,10.13.92c-67.17,172.36-190.13,358.73-315.79,494.24l-26.06,28.1c-16.8,18.12-34.03,35.07-52.03,51.98l-27.03,25.39c-110.64,103.91-236.91,190.72-372.7,261.07-174.54,90.44-363.22,150.77-558.28,177.51-101.65,13.93-203.1,20.9-304.67,15.13l-43.9-2.49c-385.67-21.91-780.38-190.47-1060.82-455.53l-36.03-34.05c-8.96-8.47-17.54-17.09-26.02-26.04l-33.17-35.01c-118.8-125.4-263.14-337.72-319.59-500.29l65.62-.95Z"/>
  <path class="st3" d="M3548.51,1248.91l23.44,1.02c63.01,155.39,104.17,318.7,122.11,486.17l2.14,19.96,1.97,24.03,1.98,27.73,2.19,34.13c1.56,24.28-1.15,26.43,1.88,56.34,1.57,15.5,1.57,31.72-.31,47.14-2.3,18.89-.2,37.55-1.5,56.64l-2.19,32.03-1.97,28.07-1.81,23.72-2.34,19.99c-21.92,187.25-54.87,309.24-119.71,485.08l-64.28.95-10.13-.92c1.28-5.07,2.84-10.73,4.73-15.28,177.15-426.59,172.72-903.67-6.55-1325.87l50.36-.93Z"/>
  <path class="st12" d="M360.01,1249.07l39.87.82c-69.49,170.11-120.37,346.6-133.9,532l-2.19,30.07c-.77,10.49-2.01,21.64-2.02,32.04l-.05,152.1c0,11.11,1.3,22.75,2.11,33.93l2.04,28.3c13.15,182.51,64.09,364.97,133.77,532.63l-65.62.95c-1.91-.06-5.7-1.16-7.62-1.06-70.47-180.05-125.32-391.02-130.85-585.51l-1.8-63.36c-.4-14.13-.47-27.83-.03-41.95l1.98-63.19c6.37-203.39,56.49-399.48,132.43-586.93l31.89-.84Z"/>
  <path class="st3" d="M293.59,1248.97l34.52.94c-75.94,187.45-126.06,383.54-132.43,586.93l-1.98,63.19c-.44,14.13-.37,27.83.03,41.95l1.8,63.36c5.53,194.48,60.38,405.46,130.85,585.51-13.55.71-39.57-.4-54.26.05.19-5.81-1.3-10.76-3.96-17.47-72.36-182.93-113.87-375.4-122.46-572.23-2.22-50.91-1.84-144.24,1.77-194.24l1.79-24.78,2.15-25.9c14.51-175.09,59.16-343.94,122.77-506.47l19.39-.86Z"/>
  <path class="st22" d="M3592.46,1248.9l-20.51,1.03-23.44-1.02c-3.77-13.75-9.56-27.32-15.86-41.25l-11.73-25.94c-6.03-13.33-12.63-25.83-19.26-39.15l-22.61-45.42-11.49-20.54-10.46-19.1-32.55-55.74-16.29-25.88-41.44-62.23-12.3-17.61-16.79-23.31-35.83-46.4-51.71-62.33-19.67-22.33-23.22-25.37c-25.42-27.77-52.01-54.16-79.67-79.65l-25.51-23.51c-279.3-257.35-669.22-423.61-1047.89-449.25l-34.15-2.31-34.64-1.7c-42.46-2.09-84.56-3.2-127.25-.31l-22.12,1.49c-9.69.66-18.73.65-28.04,1.36l-30.3,2.29c-212.8,16.09-422.22,69.58-613.17,164.77l-59.08,29.45c-121.58,60.61-271.17,167.89-370.68,259.46l-26.42,24.31c-22.82,21-44.53,42.97-65.66,65.66l-24.17,25.94-10.51,11.75-51.46,60.41c-32.15,37.74-60.79,76.4-88.23,117.47l-22.62,33.86-15.5,24.45-19.87,32.2-20.07,34.35-9.23,16.53-10.6,19.29-15.88,30.24c-7.09,13.5-14.77,26.95-20.88,41.13-7.69,17.86-9.62,20.32-17.8,38.51l-9.25,20.55-5.55,12.65c-3.17,7.21-5.84,14.33-7.47,21.3l-19.39.86-24.64-1.06c81.31-205.8,207.42-401.98,359.67-562.99l23.61-24.96c9.71-10.27,19.82-20.19,30.03-29.88l32.85-31.15,24.23-22.17c104.35-95.49,219.37-179.05,346.36-243.03l93.31-47.01,19.2-8.83,20.87-9.21c161.37-71.24,361.09-123.71,535.98-140.45l22.28-2.13,23.95-2,28.17-1.99,47.52-2.51c263.63-13.93,600.48,55.27,837.91,173.94l66.96,33.47c138.66,69.31,264.37,160.32,377.42,265.87l32.34,30.19c17.22,16.08,33.66,32.69,49.73,49.81l27.32,29.1c134.27,143.04,275.82,360.85,343.21,546.06Z"/>
  <path class="st7" d="M554.39,2590.85l49.44.33,2.3.61c-.5,6.83,3.97,12.33,7.36,18.56l14.78,27.16,7.98,13.86,8.06,13.99,7.45,12.83,9.84,16.08,11.54,18.6c33.88,54.59,71.76,105.46,113.42,154.36l12.95,15.2,11.08,12.71,20,22,23.26,24.8c14.84,15.82,30.24,31.3,46.06,46.12l26.97,25.27,16.79,15.08,17.14,15.01c76.52,66.99,159.74,124.51,249.17,173.15l33.64,18.3c11.48,6.24,23.04,11.76,34.94,17.23l36.9,16.95,86.56,35.57,33.74,12.4c111.84,41.1,267.9,71.98,387.18,78.51l39.15,2.14,118.36.2,35.46-2.08,26-1.71,23.89-1.96c130.2-10.7,257.47-40.39,378.55-89.27l78.4-31.65,35.3-16.17c16.27-7.45,31.72-15.15,47.41-23.75l33.11-18.15,11.73-6.75,15.07-8.67,12.79-7.43,17.15-10.54,17.54-10.88c59.12-36.69,113.93-77.97,166.36-123.37l15.05-13.03,16.83-15.12,23.92-22.15c20.02-18.53,39.35-37.55,58.39-58.01l25.98-27.93,14.03-15.74,14.12-16.13c73.85-84.34,134.39-178.1,186.74-277.15,1.35-2.56,1.87-6.43,1.9-8.36l7.72-.93c14.62-1.76,43.49.71,59.64,0l84.6.69c-.14,1.59-.55,5.57-1.24,7.09-59.07,131.71-165.57,293.87-263.96,399.98l-29.05,31.32-25.05,26.84-39.81,38-27.29,25.08c-61.75,56.74-128.27,106.93-198.77,153.15-121.89,79.92-253.01,141.71-392.2,185.96-110.44,35.11-223.78,59.24-339.03,68.28l-25.98,2.04-26.37,1.93c-10.72.79-22.26-.23-32.97,1.24-6.58.9-11.87,1.26-18.49,1.26h-93.85c-6.62,0-11.91-.36-18.49-1.26-10.72-1.45-22.25-.49-32.98-1.26l-26.36-1.89-25.99-1.98c-180.25-13.72-355.8-61.29-519.04-138.11l-40.01-18.83c-127.85-60.16-245.19-138.78-350.7-232.55l-11.98-10.65-17.99-16.12-34.51-32.76c-11.2-10.63-21.67-21.24-32.32-32.38l-29.15-30.49-17.91-20.06-15.03-16.84-11.65-12.99c-98.64-109.98-176.56-238.95-236.07-373.73l100.52-1.03Z"/>
  <path class="st13" d="M554.13,1249.89c0,1.05-.44,5.66-1.35,7.52-84.42,173.96-141.92,384.14-150.37,576.77l-1.95,44.51c-1.24,28.17-1.24,56.46,0,84.64l1.94,44.5c8.16,187.22,64.59,399.23,146.51,568.68,2.54,5.26,4.28,9.71,5.49,14.33l-100.52,1.03c-1.45-.31-4.28-1.09-5.73-1-71.67-167.4-124.15-347.56-138.26-530.66l-2.17-28.12c-.87-7.26-.7-14.61-1.35-22.15l-1.89-21.98.27-133.95c.02-10.28,1.52-21.5,2.21-32.1l1.81-27.83,2.32-24.02c16.5-171.08,59.46-337.4,128.21-494.88,4.08-9.34,8.09-16.4,8.83-25.29h106.02Z"/>
  <path class="st2" d="M3441.59,1248.96l4.49,1c75.02,180.39,126.66,373.98,136.95,570.59l2.01,38.46c2.15,41.03,1.38,81.19-.07,122.57-7.42,211.62-56.49,415.83-138.94,609.33l-57.88.69c.79-8.72,122.39-264.58,138.88-543.33l2.03-34.36c.54-9.06,1.77-18.56,1.51-27.85-.37-13.46-.75-25.97.78-38.94,2.12-17.94,1.81-36.01-.16-54.01-1.28-11.68-.96-23.04-.66-35.19.26-10.71-.91-21.22-1.59-31.8l-1.94-30.08-2.14-26.37c-14.08-173.38-67.34-361.9-138.71-519.82l55.44-.91Z"/>
  <path class="st12" d="M3485.99,1248.98l12.16.87c179.27,422.2,183.7,899.28,6.55,1325.87-1.89,4.55-3.45,10.2-4.73,15.28l-53.95-.07c82.44-193.5,131.51-397.72,138.94-609.33,1.45-41.38,2.22-81.54.07-122.57l-2.01-38.46c-10.28-196.61-61.92-390.2-136.95-570.59l39.92-.98Z"/>
  <path class="st2" d="M430.14,1249.04l17.97.85c-.74,8.9-4.75,15.96-8.83,25.29-68.75,157.48-111.71,323.8-128.21,494.88l-2.32,24.02-1.81,27.83c-.69,10.6-2.19,21.82-2.21,32.1l-.27,133.95,1.89,21.98c.65,7.55.48,14.89,1.35,22.15l2.17,28.12c14.11,183.1,66.6,363.26,138.26,530.66-12.11.79-35.4-.12-48.51.07-69.67-167.66-120.62-350.12-133.77-532.63l-2.04-28.3c-.81-11.18-2.11-22.82-2.11-33.93l.05-152.1c0-10.39,1.25-21.54,2.02-32.04l2.19-30.07c13.53-185.4,64.42-361.9,133.9-532l30.26-.85Z"/>
  <path class="st11" d="M3548.51,1248.91l-50.36.93-12.16-.87c-.03-1.2-.29-6.57-1.24-8.66l-25.31-55.68c-58.08-127.8-186.89-320.73-285.08-419.33l-99.36-99.78c-6.02-6.05-12.87-11.75-19.08-17.21l-14.99-13.19-16.24-13.94c-151.7-130.27-353.92-246.51-544.02-309.68l-2.71,2.16c-1.57-.23-4.38-1.05-5.96-1.42l-.9-4.3c-.2-.94-3.18,2.13-3.28,2.25-118.46-43.92-241.09-74.87-368.05-90.1-294.68-35.36-597.09,6.91-866.19,132.79-61.36,28.7-119.55,61.05-173.79,98.96-29.55,20.66-61.24,39.68-89.85,62.05-2.27.05-6.8.9-9.37,2.67-70.07,48.17-135.83,99.58-197.92,158.03-31.63,29.77-61.6,59.31-91.16,91.2-127.42,137.47-230.01,294.43-306.22,465.17-3.07,6.88-4.89,12.01-5.26,18.09l-31.89.84-34.52-.94c1.63-6.98,4.31-14.09,7.47-21.3l5.55-12.65,9.25-20.55c8.19-18.19,10.11-20.65,17.8-38.51,6.11-14.18,13.78-27.63,20.88-41.13l15.88-30.24,10.6-19.29,9.23-16.53,20.07-34.35,19.87-32.2,15.5-24.45,22.62-33.86c27.43-41.06,56.07-79.72,88.23-117.47l51.46-60.41,10.51-11.75,24.17-25.94c21.14-22.69,42.84-44.66,65.66-65.66l26.42-24.31c99.5-91.56,249.1-198.85,370.68-259.46l59.08-29.45c190.95-95.19,400.37-148.68,613.17-164.77l30.3-2.29c9.32-.7,18.35-.7,28.04-1.36l22.12-1.49c42.68-2.88,84.79-1.77,127.25.31l34.64,1.7,34.15,2.31c378.67,25.64,768.59,191.9,1047.89,449.25l25.51,23.51c27.67,25.49,54.26,51.88,79.67,79.65l23.22,25.37,19.67,22.33,51.71,62.33,35.83,46.4,16.79,23.31,12.3,17.61,41.44,62.23,16.29,25.88,32.55,55.74,10.46,19.1,11.49,20.54,22.61,45.42c6.63,13.31,13.23,25.81,19.26,39.15l11.73,25.94c6.3,13.93,12.09,27.5,15.86,41.25Z"/>
  <path class="st1" d="M969.94,513.9l-56.25,50.3c-23.55,21.06-45.51,43.36-67.73,65.66-39.42,39.57-74.79,83.55-105.71,129.96-22.37,33.59-45.5,67.03-64.68,102.88-3.05.93-7.44,3.54-10.37,7.05-69.36,83.08-129.76,172.08-181.73,267.11l-17.12,31.31-21.04,41.26-9.43,21.98c-2.67,6.23-5.2,11.63-5.74,17.62l-30.26.85-39.87-.82c.37-6.08,2.19-11.21,5.26-18.09,76.21-170.74,178.79-327.7,306.22-465.17,29.56-31.89,59.53-61.43,91.16-91.2,62.09-58.45,127.85-109.86,197.92-158.03,2.58-1.77,7.1-2.61,9.37-2.67Z"/>
  <path class="st26" d="M661.93,2591.08l2522.09-.15,52.16.91c-.03,1.93-.55,5.8-1.9,8.36-52.36,99.05-112.9,192.81-186.74,277.15l-14.12,16.13-14.03,15.74-25.98,27.93c-19.04,20.47-38.37,39.48-58.39,58.01l-23.92,22.15-16.83,15.12-15.05,13.03c-52.44,45.39-107.24,86.68-166.36,123.37l-17.54,10.88-17.15,10.54-12.79,7.43-15.07,8.67-11.73,6.75-33.11,18.15c-15.68,8.6-31.14,16.29-47.41,23.75l-35.3,16.17-78.4,31.65c-121.08,48.87-248.35,78.57-378.55,89.27l-23.89,1.96-26,1.71-35.46,2.08-118.36-.2-39.15-2.14c-119.29-6.53-275.34-37.41-387.18-78.51l-33.74-12.4-86.56-35.57-36.9-16.95c-11.9-5.47-23.46-10.98-34.94-17.23l-33.64-18.3c-89.43-48.64-172.65-106.16-249.17-173.15l-17.14-15.01-16.79-15.08-26.97-25.27c-15.82-14.83-31.23-30.3-46.06-46.12l-23.26-24.8-20-22-11.08-12.71-12.95-15.2c-41.66-48.9-79.53-99.77-113.42-154.36l-11.54-18.6-9.84-16.08-7.45-12.83-8.06-13.99-7.98-13.86-14.78-27.16c-3.39-6.23-7.86-11.73-7.36-18.56l55.8-.7Z"/>
  <path class="st13" d="M3386.14,1249.87c71.37,157.92,124.63,346.44,138.71,519.82l2.14,26.37,1.94,30.08c.68,10.59,1.85,21.09,1.59,31.8-.29,12.14-.61,23.5.66,35.19,1.96,17.99,2.28,36.06.16,54.01-1.53,12.97-1.15,25.48-.78,38.94.25,9.29-.98,18.79-1.51,27.85l-2.03,34.36c-16.49,278.75-138.09,534.61-138.88,543.33l-84.6-.69c.14-4.58,1.29-8.6,3.85-13.96,80.73-168.88,130.32-350.58,143.83-537.24l2.29-31.61,1.65-32.79c1.82-36.26,1.95-72.37.02-108.63l-1.64-30.77-2.25-31.88c-8.15-115.2-31.22-227.24-65.25-337.97-22-71.59-49.35-139.37-81.29-206.55-1.56-3.28-2.38-6.9-2.74-9.62h84.14Z"/>
  <path class="st21" d="M3228.36,1249.02l15.56.95c.2,4.67,1.56,8.9,4.17,14.1,84.36,167.96,143.28,378.23,152.32,565.68l1.65,34.29,1.29,26.21c1.01,20.52.95,40.99.04,61.48l-1.28,28.68c-9.19,206.62-61.21,415.47-155.28,600.15-1.6,3.14-2.53,7.7-2.93,10.36l-7.72.93-52.16-.91c.29-3.99,1.36-8.52,3.7-13.02,40.08-77.29,72.9-156.43,98.33-239.98,20.5-67.34,37.46-133.63,46.53-203.29l9.22-70.85,2.02-23.71,1.95-24.11c.74-9.15,2.12-18.91,2.12-27.97l-.02-133.92c0-9.1-1.25-18.97-2.03-28.14l-2.22-26.23c-12.57-148.47-48.83-293.09-106.52-430.61-17.64-42.05-.21-37.02-19.03-83.51l-8.13-20.07-6.04-15.59,24.47-.93Z"/>
  <path class="st4" d="M3302,1249.88c.36,2.73,1.18,6.34,2.74,9.62,31.94,67.18,59.3,134.96,81.29,206.55,34.02,110.74,57.1,222.77,65.25,337.97l2.25,31.88,1.64,30.77c1.94,36.27,1.81,72.37-.02,108.63l-1.65,32.79-2.29,31.61c-13.5,186.66-63.1,368.36-143.83,537.24-2.56,5.36-3.71,9.38-3.85,13.96-16.15.72-45.02-1.75-59.64,0,.4-2.66,1.33-7.23,2.93-10.36,94.08-184.68,146.09-393.53,155.28-600.15l1.28-28.68c.91-20.49.97-40.96-.04-61.48l-1.29-26.21-1.65-34.29c-9.04-187.45-67.96-397.73-152.32-565.68-2.61-5.19-3.97-9.43-4.17-14.1l58.08-.09Z"/>
  <path class="st21" d="M640.07,1249.95l-4.6,11.72c-1.11,2.83-1.55,9.83-2.3,12.87l-8.21,16.63-33.77,74.11c-23.88,52.42,1.02,39.85-14.58,83.85-42.99,121.3-70.7,247.05-77.79,375.23l-1.92,34.81c-2.22,40.1-3.68,80.19-.35,120.58l1.49,18.14c.8,9.76.54,18.67,1.42,28.06l2.08,22.11,2.34,23.93c5.97,60.96,17.24,119.5,30.9,179.21,8.61,37.65,28.64,105.99,41.96,142.27,18.21,49.63,37.56,97.49,60.41,145.17,6.47,13.5,12.03,25.82,19.67,38.66,2.63,4.43,4.58,9.48,5.11,13.79l-55.8.7-2.3-.61c.11-1.24,0-6.15-.89-8-84.69-174.05-141.41-363.98-153.7-557.46l-1.96-30.82-1.49-62.68c-.19-7.97-.03-14.63.14-22.59l1.27-60.7,1.8-24.94,2.15-29.85c11.03-153.44,50.66-302.56,110.41-444.25,9.48-22.47,11.33-43.66,9.59-68.18-.75-10.59.62-22.01.7-32.05l68.23.31Z"/>
  <path class="st4" d="M571.84,1249.64c-.08,10.04-1.45,21.46-.7,32.05,1.73,24.52-.12,45.71-9.59,68.18-59.75,141.69-99.38,290.81-110.41,444.25l-2.15,29.85-1.8,24.94-1.27,60.7c-.17,7.95-.33,14.62-.14,22.59l1.49,62.68,1.96,30.82c12.29,193.48,69.01,383.41,153.7,557.46.9,1.85,1,6.76.89,8l-49.44-.33c-1.21-4.62-2.95-9.08-5.49-14.33-81.92-169.45-138.34-381.46-146.51-568.68l-1.94-44.5c-1.23-28.18-1.23-56.46,0-84.64l1.95-44.51c8.45-192.63,65.95-402.81,150.37-576.77.91-1.87,1.36-6.47,1.35-7.52l17.71-.25Z"/>
  <path class="st6" d="M675.57,862.71l-3.61,11.51c-25.42,41.86-40.79,89.56-56.23,135.59-15.06,44.89-27.6,90.97-33.75,138.32-4.38,33.68-9.88,67.37-10.14,101.52l-17.71.25h-106.02s-17.97-.85-17.97-.85c.53-5.99,3.06-11.39,5.74-17.62l9.43-21.98,21.04-41.26,17.12-31.31c51.97-95.03,112.36-184.03,181.73-267.11,2.93-3.51,7.33-6.12,10.37-7.05Z"/>
  <path class="st6" d="M3441.59,1248.96l-55.44.91h-84.14s-58.08.1-58.08.1l-15.56-.95c.37-48.4-9.31-95.99-18.09-143.07-7.54-40.4-18.95-79.1-32.35-117.95-16.04-46.49-35.87-91.24-59.96-133.91-20.89-37-40.56-74.93-67.53-108.1-22.55-27.73-40.31-61.35-67.94-84.41-6.6-13.15-19.96-22.08-29.71-33.57-6.89-8.11-13.49-15.88-20.63-22.49,7.48,3.08,15.17,6.9,22.14,12.49,31.62,25.34,61.71,50.38,91.48,78.29,89.89,84.28,169.57,172.12,239.86,273.37l9.45,13.62c50.19,72.3,113.62,184.63,146.51,265.66Z"/>
  <path class="st1" d="M3485.99,1248.98l-39.92.98-4.49-1c-32.89-81.02-96.32-193.35-146.51-265.66l-9.45-13.62c-70.29-101.25-149.97-189.09-239.86-273.37-29.77-27.91-59.87-52.96-91.48-78.29-6.97-5.59-14.67-9.4-22.14-12.49l-45.66-42.26c-5.94-5.5-13.27-10.8-18.78-16.37-19.16-19.36-41.48-32.87-61.47-48.85-65.96-52.74-138.6-98.79-216.28-133.85l-111.99-50.54,2.71-2.16c190.11,63.18,392.32,179.42,544.02,309.68l16.24,13.94,14.99,13.19c6.2,5.46,13.05,11.16,19.08,17.21l99.36,99.78c98.19,98.6,227,291.53,285.08,419.33l25.31,55.68c.95,2.08,1.21,7.46,1.24,8.66Z"/>
  <path class="st9" d="M2467.82,310.2c.55.43,3.01,1.76,4.18,2.04,1.58.38,4.4,1.2,5.96,1.42l111.99,50.54c77.69,35.06,150.33,81.11,216.28,133.85.82,10.84-4.73.96-11.65,13.29l-20.67,3.86c-19.23,11.46-19.7,4.48-43.92,8.8-1.78-3.52-25.32-1.09-41.95-2.43l-36.24-2.92-63.22-1.14-14.67-1.89c-7.11-.92-13.64,1.19-20.32,3.39-15.12,4.98-30.7.41-45.98-.67-13.68-.97-27.46-.44-41.52-.03-7.66.22-15.18-1.45-22.6-1.57l-73.44-1.2c-8.8-.14-16.46-.48-25.24-1.24l-224.52-.05-20.34,1.97-121.91-2.72h-114.1s-121.91,2.7-121.91,2.7l-20.32-1.96h-219.48s-16.09,1.14-16.09,1.14l-18.23.24-69.47,1.11c-8.09.13-16.07,2.47-24.53,1.9-12.72-.86-25.24-1.18-37.83-.33-15.11,1.02-30.85,5.65-45.88,1.18-13.56-4.03-26.62-5.43-39.97-.26-24.96-3.24-43.13.7-67.48-2.68l-24.06-3.34-3.33-8.65c-4.22-1.19-10.36-2.25-12.18-4.68-7.84-10.45,2.56-12.93.61-18.5-2.45-7-15.71.69-19.97-8.65-5.88-2.17-12.73-5.88-18.71-7.6-15.05-4.33-41.66-5.96-45.34-13.25,54.23-37.91,112.43-70.26,173.79-98.96,269.1-125.88,571.51-168.15,866.19-132.79,126.96,15.23,249.59,46.18,368.05,90.1Z"/>
  <path class="st0" d="M1059.8,451.85c3.68,7.28,30.29,8.92,45.34,13.25,5.97,1.72,12.83,5.43,18.71,7.6,4.26,9.34,17.52,1.64,19.97,8.65,1.95,5.56-8.45,8.05-.61,18.5,1.82,2.42,7.96,3.49,12.18,4.68l3.33,8.65,24.06,3.34c24.35,3.38,42.52-.56,67.48,2.68,13.35-5.17,26.41-3.77,39.97.26,15.03,4.46,30.77-.16,45.88-1.18,12.59-.85,25.11-.53,37.83.33,8.47.57,16.44-1.77,24.53-1.9l69.47-1.11,18.23-.24,16.09-1.15h219.48s20.32,1.98,20.32,1.98l121.91-2.69h114.1s121.91,2.7,121.91,2.7l20.34-1.97,224.52.05c8.77.76,16.43,1.09,25.24,1.24l73.44,1.2c7.42.12,14.93,1.8,22.6,1.57,14.06-.41,27.83-.94,41.52.03,15.28,1.08,30.86,5.65,45.98.67,6.68-2.2,13.21-4.31,20.32-3.39l14.67,1.89,63.22,1.14,36.24,2.92c16.63,1.34,40.17-1.08,41.95,2.43l-13.66,2.43c-15.66,17.33-14.4-2.3-37.4,14.74-3.16,2.34-11.76,2.6-15.99,3.53-32.52,7.12-19.67-1.47-43.11,7.9-7.79,3.12-47.7,3.54-59.91,2.89-7.23-.38,2.3,12.3-.08,13.37-11.99,5.4-39.73-.81-58.67,3.5-11.67,2.66-20.55,7.12-33.46,5.64-5.32-.61-12.77.93-18.09,1.32l-81.57,5.95c-7.65.56-15.77.65-24.64.65h-846.85c-41.92-.01-64.09-7.09-102.65-5.5-16.16.67-31.76.39-47.93,1.92-24.36,2.3-47.57.74-71.97.21l-45.39-.99c-16.96-.37-33.29-.06-50.53-1.8-4.92-.5-12.34-7.82-17.96-7.82l-64.83-.06c-18.87-.02-36.36-3.4-54.24-8.54l-17.44-5.01c-9.22-2.65-19.14,3.77-28.32,4.72-15.78,1.63-31.44,2.5-47.4,2.22-10.3-.18-20.41-.53-30.31,1.32-1.57.29-3.55,1.36-3.62.61l-.29-3,56.25-50.3c28.62-22.37,60.3-41.39,89.85-62.05Z"/>
  <path class="st1" d="M2472,312.25c-1.17-.28-3.63-1.61-4.18-2.04.1-.13,3.08-3.19,3.28-2.25l.9,4.3Z"/>
  <path class="st24" d="M2982.48,661.59c27.62,23.06,45.39,56.68,67.94,84.41l.37,3.35c-.03-.28-31.19,8.36-29.28,8.24l-35.49,2.26c-15.65,1-31.11-.85-46.2,2.01-7.01,1.33-14.43,1.57-22.1,1.57-.25,3.4.07,9.65-1.42,11.71-3.83,5.3-18.6,2.57-16.76,7.4l2.2,5.78-19.71,1.83c-13.12,1.22-48.87,4.1-58.26,10.42-10.18-1.06-20.4.17-28.39,7.43-8.71.91-16.17,2-25.94,2h-1698.84c-7.81,0-13.66-.89-20.54-1.56-9.51-6.33-20.34-8.55-31.57-8.93-11.93-3.61-23.79-5.53-36.1-6.34-6.04-2-11.62-2.86-18.66-3.22-24.82-1.27-34.76-7.18-48.33-.07-10.68.34-23.43,1.09-33.24,4.83l-26.24-1.34c-9.66-.49-18.03-1.25-28.37-1.17-4.19.03-8.87-3.62-12.43-4.58-13.1-3.55-27.54-5.4-40.24-7.62-18.94-24.23-17.45-11.95-34.62-20.17,30.91-46.42,66.29-90.4,105.71-129.96,1.16,3.9,4.66,10.12,7.23,12.38,17.44-1.49,38.52,8.28,51.09,18.27,3.88,3.08,11.77,3.22,17.31,4.35l22.1,4.51c25.39,14.2,18.68-.42,50.23,10.96,6.65,2.4,16.56,1.23,23.96,2.17,32.27,4.11,14.28-6.26,50.92-1.63l2.87,9.06,40.51,1.45,72.53,1.27c10.19.18,18.77,2.61,28.14,7.35l1406.53.03c10.07,0,15.73-.45,22.94-6.43l18.04-1.12,72.67-1.33c12.37-.23,24.35-1.23,37.7-.45l4.51-10.22c8.18-.74,19.67-.06,28.75,1.01l44.14-1.82,27.87-1.11c10.09-.4,19.11-1.12,27.98-4.78,7.66.03,15.54.03,22.82-.98l25.52-3.53c10.95-1.51,21.31-2.68,30.17-7.67Z"/>
  <path class="st8" d="M2932.14,605.53c7.14,6.61,13.74,14.38,20.63,22.49,9.75,11.48,23.11,20.41,29.71,33.57-8.86,4.99-19.22,6.16-30.17,7.67l-25.52,3.53c-7.27,1-15.16,1.01-22.82.98-8.87,3.66-17.89,4.38-27.98,4.78l-27.87,1.11-44.14,1.82c-9.08-1.07-20.57-1.75-28.75-1.01l-4.51,10.22c-13.34-.79-25.33.22-37.7.45l-72.67,1.33-18.04,1.12c-7.21,5.98-12.87,6.43-22.94,6.43l-1406.53-.03c-9.37-4.73-17.95-7.17-28.14-7.35l-72.53-1.27-40.51-1.45-2.87-9.06c-36.64-4.63-18.65,5.74-50.92,1.63-7.4-.94-17.31.23-23.96-2.17-31.55-11.38-24.84,3.24-50.23-10.96l-22.1-4.51c-5.54-1.13-13.43-1.27-17.31-4.35-12.57-10-33.65-19.76-51.09-18.27-2.57-2.26-6.07-8.48-7.23-12.38,22.21-22.3,44.18-44.6,67.73-65.66l.29,3c.07.75,2.05-.32,3.62-.61,9.91-1.85,20.01-1.49,30.31-1.32,15.96.27,31.62-.59,47.4-2.22,9.18-.95,19.09-7.37,28.32-4.72l17.44,5.01c17.88,5.14,35.38,8.52,54.24,8.54l64.83.06c5.62,0,13.04,7.33,17.96,7.82,17.24,1.74,33.57,1.43,50.53,1.8l45.39.99c24.4.53,47.61,2.09,71.97-.21,16.17-1.52,31.78-1.25,47.93-1.92,38.56-1.59,60.73,5.49,102.65,5.49h846.85c8.87.01,16.98-.08,24.64-.64l81.57-5.95c5.32-.39,12.78-1.93,18.09-1.32,12.91,1.48,21.79-2.99,33.46-5.64,18.94-4.31,46.68,1.9,58.67-3.5,2.38-1.07-7.15-13.75.08-13.37,12.2.65,52.11.22,59.91-2.89,23.44-9.38,10.59-.79,43.11-7.9,4.22-.92,12.83-1.19,15.99-3.53,23-17.05,21.73,2.59,37.4-14.74l13.66-2.43c24.22-4.31,24.68,2.67,43.92-8.8l20.67-3.86c6.92-12.32,12.46-2.45,11.65-13.29,19.99,15.98,42.31,29.49,61.47,48.85,5.51,5.56,12.84,10.87,18.78,16.37l45.66,42.26Z"/>
  <path class="st16" d="M882.16,794.71l3.92,8.49c-2.01,3.79-4.03,7.61-4,9.96.03,2.74,5.92,5.5,8.76,6.55l4.96,1.83c1.01.37-.39,4.71-1.17,5.61l-10.25,11.96c7.39,1.62,10.86,2.12,14.61,4.33-27.72,30.99-32.81.92-45.35,25.02l-15.92.38c-12.58.3-23.97,7-36.2,11.74-10.51,4.08-13.37-10.32-26.9-4.2-8.95,4.05-17.13,3.59-26.63,4.38l-21.85,1.81c-3.22.27-9.22,3.72-12.29,3.67-4.91-.08-14.25,0-18.77-1.18l-13.91-3.62c-3.59-.94-7.58-4.02-9.19-7.21l3.61-11.51c19.18-35.85,42.31-69.29,64.68-102.88,17.16,8.22,15.68-4.06,34.62,20.17,12.7,2.22,27.15,4.06,40.24,7.62,3.56.97,8.25,4.61,12.43,4.58,10.34-.07,18.71.68,28.37,1.17l26.24,1.34Z"/>
  <path class="st15" d="M3203.9,1249.95l6.04,15.59,8.13,20.07c18.82,46.49,1.39,41.45,19.03,83.51,57.69,137.52,93.95,282.13,106.52,430.61l2.22,26.23c.78,9.17,2.03,19.04,2.03,28.14l.02,133.92c0,9.05-1.38,18.82-2.12,27.97l-1.95,24.11-2.02,23.71-9.22,70.85c-9.06,69.66-26.03,135.95-46.53,203.29-25.43,83.54-58.25,162.68-98.33,239.98-2.33,4.5-3.41,9.03-3.7,13.02l-2522.09.15c-.52-4.31-2.47-9.36-5.11-13.79-7.63-12.84-13.19-25.16-19.67-38.66-22.85-47.68-42.2-95.54-60.41-145.17-13.32-36.28-33.35-104.62-41.96-142.27-13.66-59.71-24.93-118.26-30.9-179.21l-2.34-23.93-2.08-22.11c-.88-9.39-.62-18.3-1.42-28.06l-1.49-18.14c-3.33-40.39-1.87-80.48.35-120.58l1.92-34.81c7.09-128.18,34.8-253.93,77.79-375.23,15.59-44-9.31-31.43,14.58-83.85l33.77-74.11,8.21-16.63c.76-3.04,1.19-10.03,2.3-12.87l4.6-11.72h2563.82Z"/>
  <path class="st18" d="M3210.27,1105.96c8.78,47.08,18.47,94.66,18.09,143.07l-24.47.93H640.07l-68.23-.31c.27-34.14,5.77-67.83,10.14-101.52,15.17,3.45,20.86,4.84,32.19-2.45,6.37-4.1,18.17-3.58,24.54-7.21,17.79-10.14,20.74-4.45,45.15-16.76,19.09-9.62,9.59-5.24,42.07-1.7l26.34,2.87c6.42.7,14.87,2.97,22.42,2.97h2292.67c7.66,0,15.88-2.07,22.39-2.84l27.84-3.3,14.23-1.9c7.16-.95,14.97-1.89,21.94-3.38l25.26-5.41c9.67-2.07-5.86-9.7,31.26-3.07Z"/>
  <path class="st19" d="M3177.92,988.01c13.41,38.85,24.82,77.56,32.35,117.95-37.12-6.63-21.59,1-31.26,3.07l-25.26,5.41c-6.97,1.49-14.78,2.43-21.94,3.38l-14.23,1.9-27.84,3.3c-6.51.77-14.73,2.85-22.39,2.85H774.69c-7.54,0-16-2.28-22.42-2.98l-26.34-2.87c-32.47-3.54-22.97-7.92-42.07,1.7-24.41,12.3-27.37,6.61-45.15,16.76-6.37,3.63-18.16,3.11-24.54,7.21-11.33,7.29-17.01,5.9-32.19,2.45,6.15-47.35,18.69-93.43,33.75-138.32,3.71,1.43,9.34,2.71,14.12,2.55l56.25-1.85c6.78-.22,12.16-1.41,18.4-4.96,5.34.67,13.73,2.96,19.12,2.98l24.36.12c13.95.07,26.32-.21,40.62,3.34h2268.22c1.95-.85,6.34-3.22,8.3-3.22l36.61.04c12.5.01,23.03-3.82,29.11-15.15l47.07-5.67Z"/>
  <path class="st27" d="M3117.95,854.1c24.1,42.67,43.92,87.42,59.96,133.91l-47.07,5.67c-6.08,11.33-16.62,15.16-29.11,15.15l-36.61-.04c-1.96,0-6.34,2.36-8.3,3.22H788.61c-14.3-3.56-26.67-3.28-40.62-3.35l-24.36-.12c-5.39-.03-13.77-2.32-19.12-2.98-6.24,3.55-11.62,4.74-18.4,4.96l-56.25,1.85c-4.78.16-10.41-1.12-14.12-2.55,15.44-46.03,30.81-93.73,56.23-135.59,1.6,3.19,5.59,6.27,9.19,7.21l13.91,3.62c4.52,1.18,13.85,1.11,18.77,1.18,8.67,17.83,18.38-.78,36.26,22.41,6.22,8.06,17.83,7.21,28.27,7.11l16.14,8.97c.2,3.81-.32,8.08,1.28,8.35l6.39,1.08c5.64.95,28.02-2.68,39.63-3.18,10.93-.47,17.69-3.33,27.39-6.78l28.3-10.06c13.73-4.88,32.21-2.29,47.94-.17h1949.43c18.1-3.85,35.04-.91,52.72-2.45l20.29-1.76c5.9-.51,9.62-9.82,18.86-6.02,4.88,2.01,9.7-7.34,13.03-10.36,9.11.76,19.94,1.13,26.56-6.98l10.24-12.56c8.24-.61,19.56-2.13,22.14-11.16l31.47-1.3c1.36-.06,25.01-5.01,27.76-7.26Z"/>
  <path class="st16" d="M3117.95,854.1c-2.75,2.25-26.39,7.21-27.76,7.26l-31.47,1.3-13.7-4.14c-36.78-11.12-11.04,1.76-44.22-8.5-13.47-4.17-28.18-5.68-39.87-12.55l-24.76-14.56c-25.84,5.28-27.34-10.45-44.63-26.96.14-6.07,12.28-2.16,10.2-7.62l-2.2-5.78c-1.84-4.83,12.93-2.1,16.76-7.4,1.49-2.06,1.17-8.32,1.42-11.71,7.67,0,15.09-.24,22.1-1.57,15.09-2.86,30.55-1.02,46.2-2.01l35.49-2.26c-1.91.12,29.25-8.52,29.28-8.24l-.37-3.35c26.98,33.17,46.64,71.1,67.53,108.1Z"/>
  <path class="st17" d="M2901.74,788.32c2.07,5.45-10.07,1.54-10.2,7.62,17.3,16.51,18.79,32.25,44.63,26.96l24.76,14.56c11.69,6.87,26.4,8.39,39.87,12.55,33.18,10.26,7.44-2.61,44.22,8.5l13.7,4.14c-2.58,9.03-13.9,10.55-22.14,11.16l-10.24,12.56c-6.61,8.11-17.45,7.74-26.56,6.98-3.33,3.02-8.15,12.37-13.03,10.36-9.24-3.8-12.96,5.51-18.86,6.02l-20.29,1.76c-17.69,1.54-34.63-1.4-52.72,2.44H945.45c-15.73-2.11-34.22-4.7-47.94.18l-28.3,10.06c-9.7,3.45-16.46,6.31-27.39,6.78-11.61.5-33.98,4.13-39.63,3.18l-6.39-1.08c-1.61-.27-1.09-4.54-1.28-8.35l-16.14-8.97c-10.44.1-22.04.95-28.27-7.11-17.88-23.18-27.59-4.58-36.26-22.41,3.08.05,9.08-3.4,12.29-3.67l21.85-1.81c9.5-.79,17.68-.33,26.63-4.38,13.53-6.11,16.39,8.28,26.9,4.2,12.23-4.75,23.62-11.44,36.2-11.74l15.92-.38c12.53-24.1,17.63,5.97,45.35-25.02-3.74-2.2-7.22-2.71-14.61-4.33l10.25-11.96c.77-.9,2.18-5.24,1.17-5.61l-4.96-1.83c-2.83-1.05-8.73-3.81-8.76-6.55-.02-2.35,1.99-6.16,4-9.96l-3.92-8.49c9.81-3.74,22.56-4.49,33.24-4.83,13.58-7.11,23.51-1.2,48.33.07,7.03.36,12.62,1.22,18.66,3.22,12.31.81,24.17,2.73,36.1,6.34,11.23.38,22.06,2.6,31.57,8.93,6.88.67,12.73,1.55,20.54,1.55h1698.84c9.77,0,17.23-1.09,25.94-2,7.98-7.26,18.21-8.49,28.39-7.43,9.39-6.32,45.14-9.21,58.26-10.42l19.71-1.83Z"/>
</svg>