<?xml version="1.0" encoding="UTF-8"?>
<svg id="Layer_1" xmlns="http://www.w3.org/2000/svg" version="1.1" viewBox="0 0 3500 3500">
  <!-- Generator: Adobe Illustrator 30.2.1, SVG Export Plug-In . SVG Version: 2.1.1 Build 1)  -->
  <defs>
    <style>
      .st0 {
        fill: #b02234;
      }

      .st1 {
        fill: #72212b;
      }

      .st2 {
        fill: #c3606d;
      }

      .st3 {
        fill: #b1afb0;
      }

      .st4 {
        fill: #6c6b8f;
      }

      .st5 {
        fill: #38365f;
      }

      .st6 {
        fill: #a23;
      }

      .st7 {
        fill: #a09e9f;
      }

      .st8 {
        fill: #c5c4c4;
      }

      .st9 {
        fill: #322f4a;
      }

      .st10 {
        fill: #585782;
      }

      .st11 {
        fill: #b93748;
      }

      .st12 {
        fill: #962231;
      }

      .st13 {
        fill: #fff;
      }

      .st14 {
        fill: #f0f0f0;
      }

      .st15 {
        fill: #353355;
      }

      .st16 {
        fill: #a12439;
      }

      .st17 {
        fill: #e9e9e9;
      }

      .st18 {
        fill: #be8a90;
      }

      .st19 {
        fill: #f7f7f7;
      }

      .st20 {
        fill: #82819c;
      }

      .st21 {
        fill: #85212e;
      }

      .st22 {
        fill: #fcfcfc;
      }

      .st23 {
        fill: #d1d0d0;
      }

      .st24 {
        fill: #a12232;
      }

      .st25 {
        fill: #bb4251;
      }

      .st26 {
        fill: #3d3c6e;
      }

      .st27 {
        fill: #959394;
      }

      .st28 {
        fill: #dadada;
      }

      .st29 {
        fill: #e2e1e1;
      }
    </style>
  </defs>
  <path class="st13" d="M0,3500V0h3500v3500H0ZM763.85,621.53c-10.08,6.9-19.34,15.65-27.92,24.52-1.14,1.18-3.09,3.31-4.25,4.32-178.12,154.42-344.22,418.94-411.95,647.89-29.15,98.54-60.49,229.88-64.96,332.08l-1.46,33.46-1.31,24.21c-3.42,63.11-.05,126.3,4.07,189.36l1.48,22.6,2.34,18.11,7.83,60.24,10.91,60.12c1.33,7.34,1.63,16.61,3.36,23.56l9.77,39.05c18.97,75.81,40.67,149.92,71.79,221.47l5.18,11.91c34.38,79.06,75.24,155.47,121.49,227.67,61.96,96.72,135.07,189.56,219.67,267.7,1.03,2.11,4.67,4.62,6.33,6.33,176.76,182.19,486.79,342.9,737.78,385.98,1.49.26,4.46.3,6,.46,55.24,13.56,112.3,20.9,170.15,24.79l31.72,2.13,37.97,1.92c37.68,1.91,74.04,1.55,111.16-.36l42.6-2.19c50.11-2.58,145.69-23.25,194.39-26.58l4-.27c21.82-1.49,176.52-42.32,202-57.41.54-.03,1.54-.06,2-.22,3.59-1.22,10.49-3.97,14-5.7.49,0,1.4-.16,2-.26,19.62-3.3,88.42-34.67,111.12-45.09l14-6.43c18.14-8.33,35.52-17.31,52.89-26.62l22.48-12.05,14.28-7.97,54.9-32.2c.99-.58,3.35-3.62,2.88-3.48l3.94-2.25c87.54-50.07,167.11-115.79,239.31-186.21,1.17-1.14,3.6-2.85,4.3-4.28,151.01-142.24,268.48-318.22,349.1-510.35,28.77-68.57,52.34-138.78,68.97-210.84l9.94-43.05c2.03-8.79,5.39-25.17,6.09-33.59.04-.51.02-1.39,0-2,7.82-31.75,13.08-64.25,16.16-98l5.65-62c.26-2.89,0-6.98,0-10,.79-1.13,1.86-4.33,2-6l1.22-14.45,1.9-42.59c1.41-31.5,1.94-62.9.24-94.73l-1.29-24.2c-.59-11.04-.02-21.11-1.55-32.04l-2.51-17.98c-1.19-8.51-.35-17.21-1.48-26.61-7.37-61.29-22.37-121.04-30.02-181.02l-2.14-16.78c-9.24-72.37-37.24-140.5-65.88-208.1l-13-30.69c-.39-.92-1.37-2.57-1.85-3.53-32.72-77.54-71.51-154.23-119.34-223.23-7.35-17.17-14.06-22.9-23.92-38.14l-6.45-9.99c-1.95-3.01-5.27-6.38-7.75-8.02-.22-.39-.25-1.12-.31-1.67-37.77-54.43-79.57-107.67-126.07-154.18-78.31-104.86-191.68-183.69-304.19-251.83l-63.41-38.4-19.4-10.31c-25.85-13.74-50.51-26.42-77.24-38.67-23.53-10.78-119.76-54.13-137.55-55.03-1-.05-2.93.13-4,.22.12-1.25-1.77-3.59-3.85-4.31-96.59-33.4-195.01-55.9-296.44-69.11-6.53-.85-16.53-.56-21.72-.58-1.38-.71-4.1-1.61-6-2-5.5-1.12-11.52-1.96-18.01-2.5l-24.02-2.01-28.09-2.06c-12.03-.88-23.6-.89-35.89-1.46l-29.98-1.38c-20.56-.95-40.91-.7-61.12.26l-52.38,2.48c-197.24,9.35-389.72,59.27-566.85,146.48l-36.7,18.07c-108.82,53.58-215.67,118.7-299.11,205.65Z"/>
  <path class="st1" d="M991.87,3014.27h58.02s72.64,1.03,72.64,1.03c.03,3.38,2.45,6.75,5.63,8.21l37.32,17.16c135.1,62.14,278.17,102.04,426.06,118.14l20.19,2.2,20.33,1.88,27.96,2.08c9.87.73,19.66,2.36,30.03,1.18,8.42-.96,16.16,1.28,24.08,1.73,25.32,1.44,50.46,1.38,75.83.03,7.08-.38,14.46-2.62,21.98-1.85,11.76,1.21,22.51-.38,33.72-1.17l28.2-1.97,20.54-2.06c156.94-15.77,309.27-56.94,452.2-123.59l31.34-14.61c1.99-.93,4.27-6.43,4.07-7.55l48.07-.87,77.76.03,46.12,1.06c-1.9,1.15-4.27,5.14-5.48,7l-3.94,2.25c-85.71,49.02-171.98,95.88-266.91,128.73-2.21.77-5.12,3.77-5.63,5.12-.6.1-1.51.26-2,.26-3.92.05-11.68,2.17-14,5.7-.46.15-1.46.18-2,.22-1.01-.12-3.94-.28-6.18.48-61.25,20.95-127.34,39.82-191.33,52.71-2.23.45-4.12.7-4.19,1.42l-.3,2.79-4,.27c-1.05-.29-5.84-1.44-8.34-.98-50.97,9.45-105.39,17.98-157.8,21.87l-31.78,2.36-32.05,1.92h-132.05s-32.07-1.97-32.07-1.97l-29.82-2.17c-56.11-4.08-110.03-15.32-164.09-20.75-1.54-.15-4.51-.2-6-.46l-.2-2.95c-.05-.77-2.17-.71-4.1-1.09-117.63-23.43-230.8-60.71-338.63-112.85l-46.06-22.27-15.19-8.57c-34.41-19.42-67.14-39.21-99.78-59.04l41.82-1.06Z"/>
  <path class="st1" d="M2244,334c1.07-.08,3-.27,4-.22.32.82,2.84,3.32,4.87,4.06,32.63,11.96,66.89,25.38,99.85,39.47,67.66,28.92,130.6,64.19,193.1,100.9l10.5,7.57-42.54.59-67.99.07-23.41-.64-.34,4.23c-2.96-2.06-8.66-4.81-11.87-4.77-.07-.42-2.34-3.24-4.56-4.61-119.39-73.34-262.19-122.77-402.54-147.65-119.93-21.26-241-26.83-361.42-17.58l-.06-59.66,19.3-.96,42.14-1.93c31.51-1.44,62.91-1.95,94.74-.24l24.21,1.3c9.63.52,18.67.73,27.97,1.45l30.16,2.32c125.03,9.62,245.69,37.69,363.88,76.27Z"/>
  <path class="st9" d="M1916,258c1.07.84,4.32,1.99,6,2,5.19.02,15.18-.27,21.72.58,101.43,13.21,199.84,35.71,296.44,69.11,2.08.72,3.97,3.06,3.85,4.31-118.19-38.58-238.85-66.65-363.88-76.27l-30.16-2.32c-9.3-.72-18.35-.93-27.97-1.45l-24.21-1.3c-31.83-1.71-63.23-1.2-94.74.24l-42.14,1.93-19.3.96.06,59.66c-61.21,4.7-122.27,12.94-182.92,25.67l-7.68-21.68-6.82,24.48-2.44,1.98c-112.58,23.11-221.71,65.29-321.84,121.74l-14.14-41.65c.95-2.53,3.38-5.65,6-7.56l45.15-32.97c-12.23-4.98-23.55-1.34-34.63,4.23l-87.12,43.81c-4.89,8.89-6.64,19.37-9.09,28.31-1.72,6.29-6.65,13.08-6.54,20.05l-1.69,1.25c-.55.41.78,3.54,1.13,2.95l1.29-2.13,51.32-36.01,31.57,22.8c1.33.96,3.7,4.13,4.31,5.15-67.71,37.82-126.07,88.3-180.88,142.63l-11.2-32.97,30.49-24.63c4.3-1.8,8.74-4.6,11.55-8.31,2.85-1.52,5.88-3.48,9.18-6.12l-10.84-.52-53.24-1.45-8.18-23.3-65.92,48.83,17.5,14.09c-.16,3.59-.96,8.2-2.19,12.17l-15.79,50.68c14.02-8.13,22.6-15.52,32.31-23.51,4.76-3.91,11.96-7.8,18.28-11.75,5.94-3.72,10.18,4.56,13.92,6.7-2.28,6.06-8.42,9.9-13.94,14.41l-43.12,35.19-13.82,11.93-15.78,14.05-22.2,20.32-44.08,43.49c-1.7,1.68-7.24,2.62-9.27,2.35l-4.46-14.19c16.86-12.92,34.27-23.38,48.57-37.33l2.62-.85c.63-.2.67-1.45.03-1.45h-3.23s-59.52.29-59.52.29c-1.81-2.59-3.63-6.17-4.96-9.74l-5.75-15.5c-10.7,9.36,37.75-37.64,28.05-31.01,1.16-1.01,3.1-3.14,4.25-4.32,1.37-.23,5.83-1.5,7.19-2.92l20.73-21.6c83.44-86.94,190.28-152.07,299.11-205.65l36.7-18.07c177.13-87.21,369.61-137.13,566.85-146.48l52.38-2.48c20.21-.96,40.56-1.2,61.12-.26l29.98,1.38c12.29.57,23.86.58,35.89,1.46l28.09,2.06,24.02,2.01c6.49.54,12.51,1.38,18.01,2.5Z"/>
  <path class="st1" d="M2736.39,707.02l49.69-.06,37.78.7c2.91.05,6.75,2.42,8.93,5.09,5.08,6.21,12.33,10.61,16.99,15.28l8.34,11.17c18.91,25.32,92.33,105.47,117.73,143.01.06.55.09,1.29.31,1.67l7.17,12.79c1.35,2.41,4.89,4.98,7.03,5.22,9.85,15.24,16.57,20.97,23.92,38.14.98,2.28,2.21,5.41,3.47,7.42l-31.94.45-45.7.02-21.72-.98c.47-5.99-3.04-10.7-7.02-15.96l-54.39-71.92-10.08-11.96-10.03-12-11.88-13.97-13.11-15.1c-4.94-5.69-9.3-11.64-15.18-16.8-3.75-3.3-6.68-8.42-10.08-11.85l-61.7-62.4c-1.84-1.86-3.85-5.15-4.8-7.06l16.28-.91Z"/>
  <path class="st9" d="M310.43,1741.18c8.94,3.05,16.7,10.3,23.46,16.69-.47,16.2-.98,33.01.05,50.28l2.02,34.03,2.04,23.83-78.35.03c-1.19,0-.7,4.91.06,4.22-.29,1.89-.73,5.22-.55,6.99l-3.09.12c-4.12-63.06-7.49-126.25-4.07-189.36h2l1.15,11.01,22.2,16.42-19.6,62.66,52.69-36.91Z"/>
  <path class="st27" d="M2825.99,2794.18c-6.21,11.66-28.57,26.71-33.9,37.65-.7,1.44-3.13,3.14-4.3,4.28-81.1,70.42-140.62,122.5-233.83,179.21l-46.12-1.06,1.52-5.53c79.15-47.73,153.54-103.11,222.72-164.46l14-12.42,24.48-23.23c5.07-4.81,10.02-8.39,11.4-14.65,14.61.03,29.45-.83,44.03.19Z"/>
  <path class="st27" d="M717.89,2793.98c.69,3.13,3.13,7.4,5.9,9.99l31.29,29.23c70.99,66.31,148.26,123.79,231.46,174.15,2.77,1.68,4.78,4.72,5.33,6.92l-41.82,1.06c-80.76-49.06-155.85-108.41-225.27-173.69-3.14-2.95-5.59-4.74-8.56-5.51-1.66-1.71-5.3-4.23-6.33-6.33-.55-1.13-1.64-4.42-3-5.42-10.03-7.42-19.85-21.65-28.76-30.23,13.18-.72,26.54-.13,39.75-.16Z"/>
  <path class="st27" d="M3017.75,947.45c25.89,41.02,50.26,82.59,72.12,126.99l43.74,88.82c.48.97,1.46,2.61,1.85,3.53l-2.96,2.41-32.71-.47c-2.39-7.84-5.39-15.13-9.28-23.67-29.28-64.28-62.05-125.81-100.43-185.06-2.79-4.31-4.22-8.05-4.28-12.12l31.94-.45Z"/>
  <path class="st27" d="M3243.65,1870.41c.88,13.3.53,27.02-1.51,41.26l-15.49,108.11c-.67,4.69-4.7,9.43-.47,12.22.02.61.04,1.49,0,2l-3.12.1c-.78.02-.56,2.64-.79,3.84l-5.29,28.69-6.82,25.5-20.2-.55c-.15-2.55-.67-8.22.08-11.37,15.77-66.65,28.39-142.72,31.78-209.24l21.81-.55Z"/>
  <path class="st15" d="M731.68,650.37c9.7-6.63-38.75,40.37-28.05,31.01-17.57,15.38-33.69,31.91-50.83,49.74-1.9,1.98-2.98,6.41-2.71,8.97-5.51,1.06-9.23,4.62-14.46,10.53-30.42,34.33-63.14,74.77-90.17,110.92-1.39,1.86-2.02,6.33-1.79,6.3-3.42.82-6.15,4.29-10.04,9.72-10.03,13.98-29.87,40.62-35.53,56.5-.68,1.89-4.59,4.24-6.21,6.06-33.75,50.37-61.75,102.47-88.64,157.24-34.45,70.15-62.93,142.27-83.81,216.41-6.67,23.68-31.88,93.23-29.34,118.14-1.73,1.18-3.7,4.93-4.34,7.98-13.8,65.85-23.17,131-28.22,198.08-1.01,13.49-1.7,25.3-1.2,37.63.16,3.97-.9,8.98-2.34,12.41h-2l1.31-24.21,1.46-33.46c4.47-102.19,35.81-233.54,64.96-332.08,67.72-228.94,233.83-493.47,411.95-647.89Z"/>
  <path class="st9" d="M3226.19,2034c-.7,8.43-4.06,24.8-6.09,33.59l-9.94,43.05c-16.63,72.06-40.19,142.27-68.97,210.84-80.62,192.13-198.09,368.1-349.1,510.35,5.33-10.94,27.69-25.99,33.9-37.65,5.91-3.63,10.03-9.29,15.45-14.89,66.78-69.02,123.13-145.76,174.74-225.3,45.44-70.03,85.15-144.41,115.97-221.83,30.92-77.65,56.34-158.93,78.02-240.03l6.82-25.5,5.29-28.69c.22-1.21,0-3.82.79-3.84l3.12-.1Z"/>
  <path class="st9" d="M2048,3222.27c-48.7,3.32-144.28,24-194.39,26.58l-42.6,2.19c-37.12,1.91-73.48,2.27-111.16.36l-37.97-1.92-31.72-2.13c-57.85-3.89-114.92-11.23-170.15-24.79,54.06,5.42,107.97,16.66,164.09,20.75l29.82,2.17,32.07,1.97h132.05s32.05-1.93,32.05-1.93l31.78-2.36c52.41-3.89,106.83-12.42,157.8-21.87,2.51-.46,7.3.69,8.34.98Z"/>
  <path class="st9" d="M950.05,3015.33c32.64,19.83,65.37,39.62,99.78,59.04l15.19,8.57,46.06,22.27c107.83,52.14,220.99,89.41,338.63,112.85,1.93.38,4.05.32,4.1,1.09l.2,2.95c-250.99-43.08-561.02-203.79-737.78-385.98,2.97.78,5.42,2.56,8.56,5.51,69.42,65.28,144.51,124.63,225.27,173.69Z"/>
  <path class="st9" d="M293.73,2092.02c21.16,81.24,44.68,162.79,77.25,240.36l-.15,2.27-2.09-.23-5.18-11.91c-31.11-71.55-52.82-145.66-71.79-221.47l-9.77-39.05,3.29-2.41,8.45,32.43Z"/>
  <path class="st15" d="M487.68,2553.93c1.21,1.79,2.11,5.94,2.55,8.16-46.25-72.2-87.12-148.61-121.49-227.67l2.09.23c25.27,62.56,82.01,167.76,116.85,219.28Z"/>
  <path class="st15" d="M3133.62,1163.27l-43.74-88.82c-21.86-44.4-46.23-85.97-72.12-126.99-1.27-2.01-2.5-5.14-3.47-7.42,47.83,69,86.62,145.69,119.34,223.23Z"/>
  <path class="st9" d="M3135.46,1166.8l13,30.69c28.64,67.59,56.65,135.72,65.88,208.1l2.14,16.78h-1.81s-4.68-13.81-4.68-13.81c-26.68-78.66-43.74-162.99-77.49-239.34l2.96-2.41Z"/>
  <path class="st15" d="M2849.78,728.03c-4.66-4.66-11.91-9.07-16.99-15.28-2.19-2.67-6.02-5.04-8.93-5.09-75.79-93.72-175.45-155.43-267.54-221.87l-10.5-7.57-.23-2.01c112.51,68.14,225.88,146.97,304.19,251.83Z"/>
  <path class="st9" d="M2545.6,476.2l.23,2.01c-62.5-36.7-125.44-71.98-193.1-100.9-32.96-14.09-67.22-27.51-99.85-39.47-2.03-.74-4.55-3.23-4.87-4.06,17.79.9,114.01,44.25,137.55,55.03,26.73,12.25,51.39,24.93,77.24,38.67l19.4,10.31,63.41,38.4Z"/>
  <path class="st15" d="M3248,1630h-2l-2,.12c3.31-30.2-21.77-185.49-29.32-207.75h1.81c7.66,59.99,22.65,119.74,30.02,181.02,1.13,9.4.29,18.11,1.48,26.61Z"/>
  <path class="st9" d="M3250,1856c-.85,1.06-2.01,4.32-2,6,0,3.02.26,7.11,0,10l-2-2,1.39-26,1.69-33.13c1.98-38.82,2.51-77.49.29-116.86l-1.92-34.11-1.45-29.9h2l2.51,17.98c1.53,10.93.96,21.01,1.55,32.04l1.29,24.2c1.7,31.83,1.17,63.23-.24,94.73l-1.9,42.59-1.22,14.45Z"/>
  <path class="st9" d="M2787.79,2836.12c-72.19,70.42-151.77,136.14-239.31,186.21,1.21-1.85,3.58-5.84,5.48-7,93.21-56.71,152.73-108.79,233.83-179.21Z"/>
  <path class="st9" d="M2254,3164.59c-25.48,15.09-180.18,55.92-202,57.41l.3-2.79c.08-.72,1.97-.97,4.19-1.42,63.99-12.89,130.09-31.76,191.33-52.71,2.23-.76,5.17-.6,6.18-.48Z"/>
  <path class="st15" d="M259.17,1877.24l1.89,19.19c6.01,60.95,9.51,83.47,20.32,142.02l-2.75-.02-10.91-60.12-7.83-60.24-2.34-18.11-1.48-22.6,3.09-.12Z"/>
  <path class="st15" d="M3248,1872l-5.65,62c-3.08,33.75-8.34,66.25-16.16,98-4.23-2.78-.2-7.53.47-12.22l15.49-108.11c2.04-14.24,2.38-27.96,1.51-41.26.62-.02,1.61-.25,2.35-.41l2,2Z"/>
  <path class="st9" d="M2544.55,3024.58c.47-.14-1.89,2.9-2.88,3.48l-54.9,32.2-14.28,7.97-22.48,12.05c-17.37,9.31-34.75,18.29-52.89,26.62l-14,6.43c-22.7,10.42-91.49,41.79-111.12,45.09.51-1.35,3.42-4.35,5.63-5.12,94.94-32.85,181.21-79.7,266.91-128.73Z"/>
  <path class="st9" d="M678.14,2794.14c8.91,8.58,18.73,22.81,28.76,30.23,1.36,1.01,2.45,4.29,3,5.42-84.6-78.15-157.71-170.98-219.67-267.7,57.45,81.33,115.94,162.68,187.91,232.05Z"/>
  <path class="st5" d="M281.38,2038.45l3.91,21.14-3.29,2.41c-1.74-6.95-2.03-16.23-3.36-23.56l2.75.02Z"/>
  <path class="st15" d="M735.93,646.05c8.58-8.87,17.84-17.62,27.92-24.52l-20.73,21.6c-1.36,1.42-5.82,2.69-7.19,2.92Z"/>
  <path class="st9" d="M2975.85,882.2c-25.4-37.54-98.82-117.69-117.73-143.01l-8.34-11.17c46.49,46.51,88.29,99.74,126.07,154.18Z"/>
  <path class="st9" d="M2990.36,901.89c-2.14-.24-5.68-2.81-7.03-5.22l-7.17-12.79c2.48,1.65,5.8,5.01,7.75,8.02l6.45,9.99Z"/>
  <path class="st9" d="M2270,3158.68c-3.51,1.73-10.41,4.48-14,5.7,2.32-3.52,10.08-5.65,14-5.7Z"/>
  <path class="st15" d="M1922,260c-1.68,0-4.93-1.16-6-2,1.9.39,4.62,1.29,6,2Z"/>
  <path class="st10" d="M3248,1862c0-1.68,1.15-4.94,2-6-.14,1.67-1.21,4.87-2,6Z"/>
  <path class="st21" d="M1206.14,3014.28l239.8-.1h624s146.19.09,146.19.09l165.88.85c.2,1.12-2.08,6.62-4.07,7.55l-31.34,14.61c-142.93,66.66-295.26,107.83-452.2,123.59l-20.54,2.06-28.2,1.97c-11.22.78-21.97,2.37-33.72,1.17-7.52-.77-14.9,1.47-21.98,1.85-25.37,1.36-50.51,1.41-75.83-.03-7.92-.45-15.67-2.69-24.08-1.73-10.37,1.18-20.16-.44-30.03-1.18l-27.96-2.08-20.33-1.88-20.19-2.2c-147.89-16.1-290.96-56-426.06-118.14l-37.32-17.16c-3.18-1.46-5.6-4.83-5.63-8.21l83.6-1.02Z"/>
  <path class="st3" d="M2716.37,2792.93l11.82.93c-.89,5.34-5.52,8.12-10.35,12.56-85.03,78.06-178.72,145.8-280.81,200.48-3.88,2.08-6.06,4.34-6.95,7.35l-48.07.87-165.88-.85c.29-1.14,3.02-4.79,4.87-5.49,132.41-49.93,255.73-118.82,366.49-206.74,2.64-2.1,4.37-5.9,4.61-8.09l124.26-1.02Z"/>
  <path class="st3" d="M784.36,2793.03l79.52.89c.58,3.22,2.3,5.96,5.68,8.79,100.44,83.86,211.48,152.86,331.48,205.45,3,1.31,5.01,4.04,5.09,6.13l-83.6,1.02-72.64-1.04c-.71-2.27-2.71-4.91-5.69-6.58-91.46-51.11-176.85-110.87-254.09-181.49l-23.23-21.24c-3.39-3.1-6.28-7.33-7.07-11.06l24.55-.87Z"/>
  <path class="st7" d="M2781.96,2793.99c-1.38,6.25-6.33,9.83-11.4,14.65l-24.48,23.23-14,12.42c-69.18,61.35-143.57,116.73-222.72,164.46l-1.52,5.53-77.76-.03c.89-3.01,3.07-5.27,6.95-7.35,102.09-54.68,195.77-122.42,280.81-200.48,4.83-4.43,9.47-7.21,10.35-12.56l53.77.12Z"/>
  <path class="st7" d="M759.82,2793.9c.79,3.73,3.69,7.96,7.07,11.06l23.23,21.24c77.23,70.62,162.62,130.38,254.09,181.49,2.98,1.67,4.98,4.31,5.69,6.58h-58.02c-.55-2.19-2.56-5.24-5.33-6.91-83.2-50.36-160.47-107.84-231.46-174.15l-31.29-29.23c-2.77-2.59-5.21-6.86-5.9-9.99l41.93-.08Z"/>
  <path class="st18" d="M2410.17,485.28l-86.18,1.09h-228.01l-451.82-.33-2.28-.04-.83-51.59.6-118.97c120.42-9.25,241.49-3.68,361.42,17.58,140.35,24.88,283.15,74.3,402.54,147.65,2.22,1.36,4.49,4.19,4.56,4.61Z"/>
  <path class="st23" d="M2410.17,485.28c3.21-.04,8.91,2.7,11.87,4.77,44.72,31.18,88.51,62.66,127.81,102.09,35.27,35.38,68.29,72.48,92.03,115.28-11.39,1.33-33.88-1.88-45.86-1.14-.27-6.75-3.92-13.67-9.4-18.71l-13.68-12.58-17.99-15.95c-15.43-13.68-29.52-27.48-46.63-39.21-13.54-9.29-26.55-18.29-37.97-30.01-8.52-5.63-15.29-12.14-23.07-19.27-9.27-8.49-21.03-15-31.19-22.82-14.48-11.13-29.23-19.74-44.87-29.32l-25.81-15.8-15.71-8.78c-2.47-1.38-5.16-4.87-5.7-7.46l86.18-1.09Z"/>
  <path class="st3" d="M2445.79,486.45c.1,1.74,2.4,5.93,4.88,7.31,102.05,56.63,195.61,124.74,281.35,203.87,2.6,2.4,4.18,6.92,4.37,9.4l-16.28.91-75.9-.14c-.57,0-1.76-.44-2.33-.38-23.74-42.8-56.75-79.9-92.03-115.28-39.3-39.43-83.09-70.91-127.81-102.09l.34-4.23,23.41.64Z"/>
  <path class="st7" d="M2513.78,486.38c-.39,1.43,1.13,5.64,3.12,6.84,81.83,49.12,157.22,105.78,227.29,170.29l35.57,32.76c3.38,3.11,6.28,6.86,6.3,10.69l-49.69.06c-.19-2.48-1.77-7-4.37-9.4-85.74-79.13-179.3-147.24-281.35-203.87-2.48-1.38-4.78-5.57-4.88-7.31l67.99-.07Z"/>
  <path class="st27" d="M2556.32,485.78c92.09,66.44,191.75,128.15,267.54,221.87l-37.78-.7c-.02-3.83-2.92-7.58-6.3-10.69l-35.57-32.76c-70.07-64.52-145.46-121.17-227.29-170.29-2-1.2-3.52-5.4-3.12-6.84l42.54-.59Z"/>
  <path class="st20" d="M1107.53,475.87l2.46.19,15.24,9.69c6.29,4,7.17-5.86,18.81-.44,9.5,4.43,19.82,6.43,29.59,4.92,12.29-1.89,17.68,4.87,26.18,9.2,16.14,8.23,42.59,1.73,52.26,6.13l-11.53,39.22-66.07.74,52.83,39.07-19.17,62.75,53.29-37.85,54.57,39.05-20.38-63.79,53.2-39.32-66.1-.54-8.56-28.69c55.49-3.97,49.11,5.05,83.92,9.49,11.26,1.44,22.13,2.81,33.9,2.66l32.01-.39,82.25.24c34.35.1,20.77,9.68,39.48,9.83l50.32.43c10.31.09,21.05-.77,31.06.23l14.02,1.4.88,43.85-.18,123.69-.68,98.37h-117.2c-3.43,0-8.84-.99-10.44-2.91l-4.36-5.22c-.94-1.12-5.19.86-5.2,1.63l-18.37-53.14,53.03-39.33-65.77-.62-21.46-63.12-21.29,62.95-65.67.77,52.97,39.56c-4.89,15.17-13.2,40.67-18.74,53.48l-7.81-5.86-65.98-1.15c-20.2-.35-39.95-1.06-60.25-1.16-12.11-12.3-15.23-.87-51.14-9.16-12.51-2.89-28.1,2.2-39.87-2.24-8.48-3.2-13.56-6.88-23.77-4.39-6.65,1.63-9.8-1.79-14.04-6.39-4.24-4-15.79-1.52-21.47.69l-8.8-24.12,53.14-39.3-65.84-.58-21.34-62.92-21.24,62.82-65.56.62,39.33,30.7-14.4-1.58-10.15-3.76-41.5-.04c-4.61,0-8.79-6.7-12.08-7.59l-36.17-9.81c-10.09-2.74-37.91,2.45-41.69-16.96,14.67-21.63,29.01-43.72,46.04-63.9l1.97-.14c6,4.95,11.97,9.25,19.55,13.78l-8.39-25.94-.54-3.14c54.81-54.33,113.17-104.81,180.88-142.63Z"/>
  <path class="st27" d="M1441.8,345.9l-11.16,37.3-65.93.92,52.62,39.14-19.83,63.17,54.11-38.44,53.93,38.63-17.37-56.57c5.02-1.42,10.06-1.61,16.09-.95l41.72,4.55,95.08.77.83,51.59v2s.12,35.93.12,35.93l-.88,16.14-14.02-1.4c-10.01-1-20.75-.14-31.06-.23l-50.32-.43c-18.71-.16-5.14-9.73-39.48-9.83l-82.25-.24-32.01.39c-11.78.14-22.65-1.22-33.9-2.66-34.81-4.45-28.43-13.46-83.92-9.49l-12.57-33.58c-2.88,7.68-7.32,15.5-9.52,22.97-9.68-4.41-36.12,2.1-52.26-6.13-8.5-4.34-13.89-11.1-26.18-9.2-9.78,1.51-20.09-.49-29.59-4.92-11.63-5.42-12.52,4.44-18.81.44-1.41-5.54-3.24-11.1-5.46-16.32l.19-1.79c100.14-56.45,209.26-98.63,321.84-121.74Z"/>
  <path class="st7" d="M1641.65,315.44l-.6,118.97-95.08-.77-41.72-4.55c-6.03-.66-11.07-.47-16.09.95l-1.58-7.62,51.88-38.29-65.87-.84-13.66-41.62-14.7,2.23,6.82-24.48,7.68,21.68c60.65-12.74,121.71-20.97,182.92-25.67Z"/>
  <polygon class="st28" points="1488.16 430.05 1505.52 486.61 1451.6 447.98 1397.49 486.43 1417.32 423.26 1364.7 384.12 1430.63 383.2 1441.8 345.9 1444.23 343.92 1458.93 341.68 1472.59 383.3 1538.46 384.14 1486.58 422.43 1488.16 430.05"/>
  <path class="st7" d="M955.84,545.96c.18,2.2.81,5,1.65,6.64-2.82,3.71-7.26,6.51-11.55,8.31-6.31.44-11.97,3.08-17.89,7-21.62,14.33-43.89,30.14-62.3,46.83-1.24,1.12-5.04,2.13-5.1,3.24l-.31,5.49c-9.71,7.98-18.3,15.38-32.31,23.51l15.79-50.68c1.24-3.96,2.03-8.58,2.19-12.17.95.76,4.41,1.54,5.68.55,15.88-12.38,36.93-25.81,50.92-40.17l53.24,1.45Z"/>
  <path class="st27" d="M1105.81,425.99c-13.8,1.38-25.57,10.85-38.46,17.45l-26.39,13.52c-5.29,2.71-9.47,5.12-14.83,4.85,2.44-8.94,4.2-19.42,9.09-28.31l87.12-43.81c11.08-5.57,22.39-9.21,34.63-4.23l-45.15,32.97c-2.62,1.92-5.06,5.03-6,7.56Z"/>
  <path class="st7" d="M1105.81,425.99l14.14,41.65-.19,1.79c-4.15.44-8.45,2.85-9.78,6.64l-2.46-.19c-.61-1.03-2.98-4.19-4.31-5.15l-31.57-22.8-51.32,36.01-.73-2.07c-.12-6.96,4.82-13.76,6.54-20.05,5.36.27,9.53-2.14,14.83-4.85l26.39-13.52c12.88-6.6,24.66-16.07,38.46-17.45Z"/>
  <path class="st27" d="M902.6,544.5c-13.98,14.36-35.03,27.79-50.92,40.17-1.26.99-4.73.21-5.68-.55l-17.5-14.09,65.92-48.83,8.18,23.3Z"/>
  <path class="st3" d="M945.94,560.9l-30.49,24.63,11.2,32.97.54,3.14c-4.49,2.94-8.49,7.44-11.16,12.17l-1.97.14c-6.33-6.09-13.89-11.17-21.52-15.54-3.74-2.14-7.98-10.42-13.92-6.7-6.32,3.95-13.52,7.84-18.28,11.75l.31-5.49c.06-1.1,3.87-2.11,5.1-3.24,18.41-16.69,40.68-32.5,62.3-46.83,5.92-3.92,11.58-6.56,17.89-7Z"/>
  <path class="st3" d="M957.49,552.59c-.84-1.63-1.47-4.44-1.65-6.64l10.84.52c-3.3,2.63-6.33,4.6-9.18,6.12Z"/>
  <path class="st27" d="M1020.34,483.93l-1.29,2.13c-.35.59-1.68-2.55-1.13-2.95l1.69-1.25.73,2.07Z"/>
  <path class="st21" d="M2720.11,707.93c.94,1.91,2.96,5.2,4.8,7.06l61.7,62.4c3.4,3.43,6.33,8.56,10.08,11.85,5.89,5.17,10.24,11.12,15.18,16.8l13.11,15.1,11.88,13.97,10.03,12,10.08,11.96,54.39,71.92c3.97,5.25,7.49,9.97,7.02,15.96l-38.48,1.06-113.83-.03-51.94-.25c.42-68.67-15.29-136.84-47.85-198.26l-22.09-41.66,75.9.14Z"/>
  <path class="st3" d="M2918.39,946.94l21.72.98c1.28,5.54,3.93,10.77,7.73,16.47,37.19,55.82,68.78,113.5,97.86,173.87,4.95,10.27,10.36,19.35,10.34,29.71l-6.13,2.04c-15.06-.6-31.11-2.36-46.07-2.03-29.73-68.76-74.9-144.8-118.59-207.24-2.78-3.97-4.57-9.05-5.34-12.74l38.48-1.06Z"/>
  <path class="st7" d="M2985.82,947.9c.05,4.06,1.49,7.81,4.28,12.12,38.38,59.25,71.15,120.78,100.43,185.06,3.89,8.54,6.89,15.83,9.28,23.67-14.57-.21-29.39.96-43.76-.77.02-10.36-5.39-19.44-10.34-29.71-29.08-60.37-60.67-118.04-97.86-173.87-3.8-5.71-6.45-10.93-7.73-16.47l45.7-.02Z"/>
  <path class="st15" d="M914.05,633.95c-17.03,20.18-31.37,42.27-46.04,63.9-32.75,48.29-56.23,103.01-68.76,160.23-4.63.98-7.86,3.92-11.44,7.95-30.12,33.89-58.35,67.53-86.04,103.85-1.32,1.74-6.14,2.99-7.53,2.39l-3.05-5.2-17.32,50.74c-5.61-.4-8.08,5.85-8.3,11.19l-61.07,1.03,35.2,27.5-2.71,8.16c.63-1.91-65.61,111.43-65,125.18l-48.13.89-22.44-63.71-21.1,62.72-56.25-.83c30.19-76.94,70.8-150,114.69-220.77,1.36-2.2,3.85-4.34,5.25-5.11,2.29,1.74,6.6,3.86,10.87,6.16l-4.98-22.07,2.82-.13c34.06-48.79,69.18-96,107.89-141.46l12.98-15.24c2.97-3.48,5.46-7.14,6.07-10.86,3.34-2.28,7.87-6.87,12.16-9.19l53.8,38.65-15.31-49.79c2.04.27,7.57-.67,9.27-2.35l44.08-43.49,22.2-20.32,15.78-14.05,13.82-11.93,43.12-35.19c5.53-4.51,11.66-8.35,13.94-14.41,7.63,4.37,15.18,9.45,21.52,15.54Z"/>
  <path class="st7" d="M773.85,706.33l.58,2.3c-14.3,13.95-31.7,24.41-48.57,37.33l4.46,14.19,15.31,49.79-53.8-38.65c-4.29,2.32-8.82,6.91-12.16,9.19l-41.85,28.54c3.4-12.9,7.4-22.49,10.6-33.07,3.36-1.05,7.65-3.83,10.41-6.86l17.36-19.06,34.78-35.21c1.69-1.71,3.27-6.25,3.36-8.19l59.52-.29Z"/>
  <path class="st27" d="M714.33,706.62c-.08,1.95-1.66,6.48-3.36,8.19l-34.78,35.21-17.36,19.06c-2.76,3.03-7.05,5.81-10.41,6.86l8-26.49c.84-2.78-3.95-7.86-6.34-9.37-.27-2.55.81-6.99,2.71-8.97,17.15-17.82,33.27-34.35,50.83-49.74l5.75,15.5c1.32,3.57,3.15,7.15,4.96,9.74Z"/>
  <path class="st27" d="M774.43,708.64l-.58-2.3h3.23c.64,0,.6,1.25-.03,1.46l-2.62.85Z"/>
  <path class="st15" d="M439.76,1211.56l27.55,18.88-19.24,63.11c14.19-9.14,36.92-25.73,47.91-35.39,7.64-6.71,26.39,14.17,32.51,18.13-.26,4.36-.87,9.04-2.68,13.93-27.05,73.08-48.76,147.53-61.87,223.62l-49.62.55,32,25.41-10.05,78.26c-.82,6.41-1.38,13.4-1.86,19.84l-1.81,24.1c-.87,11.58-.77,22.55-2.58,34l.05,111.74c1.75,9.53,1.66,18.65,2.42,28.34l2.28,29.24-96.78.67-2.04-23.83-2.02-34.03c-1.03-17.27-.52-34.08-.05-50.28l32.01,20.81-20.34-63.12,52.99-39.2-65.92-1.06-10.08-27.37,3.01.83c1.14.32,3.8-2.55,4-5.62,3.96-62.11,15.46-129.81,26.84-192.62,1.99,1.61,6.41,3.61,9.53,5.36l-20.39-63.49,52.64-38.61c-2.88-.81-6.22-1.74-8.09-1.73.08-4.23.62-9.16,2.1-13.98,13.31-43.19,28.28-84.73,44.97-126.34l2.61-.18Z"/>
  <path class="st27" d="M284.52,1870.52c-.42,8.98.18,17.73,1.17,27.84,6.44,65.77,18.24,129.64,32.45,193.2l-24.41.45-8.45-32.43-3.91-21.14c-10.82-58.55-14.31-81.07-20.32-142.02l-1.89-19.19c-.17-1.77.26-5.11.55-6.99l24.81.27Z"/>
  <path class="st7" d="M317.76,1631.73l-2.8.17c-4.28.26-9.1,102.59-4.53,109.28l-52.69,36.91,19.6-62.66-22.2-16.42-1.15-11.01c1.44-3.44,2.5-8.45,2.34-12.41l34.18-.28,20.71-62.56c3.17,8.03,4.67,12.95,6.53,18.98Z"/>
  <path class="st21" d="M338,1866l96.78-.67,83.22.67v4l-49.87.34-89.86-.07-63.96.13-29.78.12-24.81-.27c-.76.7-1.25-4.22-.06-4.22l78.35-.03Z"/>
  <path class="st1" d="M2941.54,2552.98l42.12.03,32.54.99c-51.61,79.54-107.97,156.28-174.74,225.3-5.42,5.6-9.54,11.26-15.45,14.89-14.58-1.02-29.42-.16-44.03-.19l-53.77-.12-11.82-.93c1.78-10.11,12.31-15.65,19.97-22.72,13.54-12.46,26.35-25.36,38.69-38.9l12.51-13.72c5.91-6.48,11.64-12.41,17.29-18.85l16.8-19.14c15.46-17.61,29.88-35.13,43.92-53.78l45.64-60.61c2.3-3.06,4.11-8.09,4.73-11.2l25.61-1.03Z"/>
  <path class="st1" d="M520.46,2552.99l45.22.04,18.17.89c.4,3.25,1.71,6.8,4.11,10.21,35.74,50.76,73.12,98.98,115.36,144.24l27.15,29.08c9.36,10.02,18.59,19.92,28.78,29.46,9.02,8.44,20.12,15.41,25.11,26.13l-24.55.87-41.93.08c-13.21.02-26.57-.56-39.75.16-71.97-69.37-130.46-150.72-187.91-232.05-.44-2.22-1.34-6.37-2.55-8.16l32.78-.94Z"/>
  <path class="st1" d="M3056.04,1167.97c14.37,1.73,29.19.56,43.76.77l32.71.47c33.75,76.35,50.81,160.69,77.49,239.34-6.09.27-14.04,1.51-19.88,1.47l-32.24-.25-27.55-1.04c-17.67-82.32-48.97-160.86-80.41-238.72l6.13-2.04Z"/>
  <path class="st1" d="M3156.17,2091.62l33.82-.04,20.2.55c-21.69,81.11-47.1,162.38-78.02,240.03l-34.01.23-39.91-.04-6.57-.79c-.16-4.86,1.06-9,3.37-14.43,31.12-73.12,58.54-147.83,75.18-224.77l25.94-.74Z"/>
  <path class="st1" d="M3193.83,1630.08h30.02s20.15.03,20.15.03l2-.12,1.45,29.9,1.92,34.11c2.22,39.38,1.69,78.05-.29,116.86l-1.69,33.13-1.39,26c-.73.16-1.73.39-2.35.41l-21.81.55-31.48-.25-2.4-.59c-.25-7.87.38-15.87,1.57-24.48l1.81-37.96.06-115.4-2.16-34.2-1.21-27.02,5.8-.98Z"/>
  <path class="st7" d="M3221.84,1870.96c-3.39,66.52-16.01,142.6-31.78,209.24-.75,3.15-.23,8.82-.08,11.37l-33.82.04c15.48-71.7,30.76-147.78,34.2-220.91l31.48.25Z"/>
  <path class="st9" d="M544.02,964.08c-1.4.77-3.89,2.91-5.25,5.11-43.89,70.77-84.49,143.83-114.69,220.77l-8.28,2.85,23.96,18.75-2.61.18c-16.69,41.61-31.65,83.15-44.97,126.34-1.48,4.81-2.02,9.75-2.1,13.98l-57.54.27-13.11-38.57c20.88-74.14,49.36-146.26,83.81-216.41,26.89-54.77,54.89-106.87,88.64-157.24,1.62-1.82,5.53-4.17,6.21-6.06,3.06-.23,7.72,1,10.47,3.09l35.46,26.93Z"/>
  <path class="st9" d="M314.38,1419.75c10.87,7.16,31.89,22.58,42.02,30.77-11.38,62.81-22.88,130.51-26.84,192.62-.2,3.06-2.85,5.93-4,5.62l-3.01-.83c-1.73-4.7-3.25-11.19-4.79-16.2-1.86-6.03-3.37-10.95-6.53-18.98l-20.71,62.56-34.18.28c-.5-12.33.18-24.15,1.2-37.63,5.04-67.08,14.42-132.23,28.22-198.08.64-3.05,2.61-6.8,4.34-7.98l17.65-12.1c1.42-.97,5.3-.93,6.64-.05Z"/>
  <path class="st27" d="M332.54,1352.33c-7.35,22.05-13.06,44.69-18.16,67.43-1.34-.88-5.22-.93-6.64.05l-17.65,12.1c-2.54-24.91,22.67-94.46,29.34-118.14l13.11,38.57Z"/>
  <path class="st27" d="M3132.16,2332.16c-30.83,77.42-70.53,151.8-115.97,221.83l-32.54-.99c.12-1.16,1.05-5.59,2.02-7.08,41.93-64.95,78.11-131.79,109.19-202.51,1.74-3.97,2.7-7.75,3.29-11.03l34.01-.23Z"/>
  <path class="st1" d="M318.14,2091.57l30.04.05,25.68.72c18.29,77.51,44.74,152.73,76.56,226.57,1.99,4.63,3.12,8.88,3.83,12.7l-6.08.85-41.91-.04-35.28-.04c-32.57-77.58-56.09-159.12-77.25-240.36l24.41-.45Z"/>
  <path class="st27" d="M406.26,2332.42c1.34,6.68,3.97,13.38,7.19,20.27l14.05,30.09,21.22,42.82c19.67,39.68,42.11,76.61,65.72,114.08,2.86,4.54,4.99,9.1,6.01,13.3l-32.78.94c-34.84-51.52-91.58-156.72-116.85-219.28l.15-2.27,35.28.04Z"/>
  <path class="st27" d="M3210,1408.56l4.68,13.81c7.55,22.26,32.63,177.55,29.32,207.75l-20.15-.04c-1.88-6.82-1.94-13.74-2.78-22.14-6.37-63.7-16.98-127.41-31.2-189.87-.45-2,.09-6.96.24-8.05,5.85.04,13.79-1.2,19.88-1.47Z"/>
  <path class="st9" d="M650.08,740.08c2.39,1.51,7.18,6.59,6.34,9.37l-8,26.49c-3.2,10.58-7.2,20.17-10.6,33.07l41.85-28.54c-.61,3.73-3.11,7.38-6.07,10.86l-12.98,15.24c-38.71,45.46-73.83,92.67-107.89,141.46l-2.82.13c-5.64-12.49-9.83-25.77-14.42-40.32l53.07-39.08-44.9-.93c-.23.04.4-4.43,1.79-6.3,27.02-36.15,59.75-76.6,90.17-110.92,5.24-5.91,8.95-9.47,14.46-10.53Z"/>
  <path class="st27" d="M549.91,948.17l4.98,22.07c-4.27-2.3-8.58-4.42-10.87-6.16l-35.46-26.93c-2.75-2.09-7.42-3.32-10.47-3.09,5.67-15.88,25.5-42.53,35.53-56.5,3.89-5.42,6.62-8.9,10.04-9.72l44.9.93-53.07,39.08c4.59,14.55,8.78,27.84,14.42,40.32Z"/>
  <path class="st23" d="M1103.93,2794c1.27,2.81,5.36,7.13,8.84,9.15l34.63,20.1,24.34,13.51c18.9,10.49,37.76,19.61,57.4,28.51l24.94,11.3c122.46,55.47,253.26,90.27,387.52,100.57l28.34,2.17,34.22,1.97c30.41,1.75,59.97,1.96,90.37.28l43.63-2.41c133.44-7.37,292.71-48.99,415.25-103.88l26.04-11.66c16.93-7.58,33.27-15.8,49.47-24.78l21.67-12.01,43.71-24.71c2.49-1.41,5.45-5.89,5.78-8.12l119.83-.04c-.42,2-2.26,5.6-4.77,7.42-132.41,95.7-280.41,165.65-438.77,206.34-4.21,1.08-6.37,3.34-6.42,6.46h-624c.19-.69-2.37-4.17-3.81-4.52-162.16-40.08-314.07-110.21-449.46-207.79-3.17-2.28-4.69-5.22-4.79-7.95l116.05.09Z"/>
  <path class="st8" d="M941.59,2792.93l46.29.98c.09,2.73,1.62,5.67,4.79,7.95,135.4,97.58,287.31,167.71,449.46,207.79,1.43.35,4,3.83,3.81,4.53l-239.8.1c-.08-2.09-2.09-4.81-5.09-6.13-120-52.59-231.04-121.59-331.48-205.45-3.38-2.82-5.11-5.56-5.68-8.79l77.71-.99Z"/>
  <path class="st8" d="M2572.35,2792.93l19.75,1.02c-.25,2.18-1.97,5.99-4.61,8.09-110.76,87.92-234.09,156.81-366.49,206.74-1.85.7-4.58,4.35-4.87,5.49l-146.19-.1c.06-3.12,2.21-5.38,6.42-6.46,158.37-40.69,306.36-110.64,438.77-206.34,2.51-1.82,4.36-5.42,4.77-7.42l52.45-1.02Z"/>
  <path class="st21" d="M2830.3,2552.99l85.63,1.02c-.62,3.11-2.42,8.15-4.73,11.2l-45.64,60.61c-14.05,18.66-28.47,36.17-43.92,53.78l-16.8,19.14c-5.65,6.44-11.38,12.37-17.29,18.85l-12.51,13.72c-12.35,13.54-25.16,26.44-38.69,38.9-7.67,7.06-18.2,12.61-19.97,22.72l-124.26,1.02-19.75-1.02c.26-4.74,3.43-7.85,7.53-11.32l59.43-50.28,16.86-15.28c22.49-20.38,43.53-41.33,63.88-63.88l17.11-18.96,14.83-16.88,40.75-49.6c3.14-3.83,5.65-8.82,7.13-12.77l30.42-.99Z"/>
  <path class="st21" d="M628.39,2553.05l83.71.92c.54,3.24,2.47,7.65,5.08,10.77l46.46,55.56,11.39,12.7,19.34,21.07c17.08,18.61,34.87,36.48,53.52,53.56l21.08,19.3,13.75,12.41,53.44,44.36c3.09,2.57,5.19,5.75,5.42,9.21l-77.71.99-79.52-.89c-4.99-10.72-16.09-17.68-25.11-26.13-10.19-9.53-19.42-19.43-28.78-29.46l-27.15-29.08c-42.24-45.25-79.62-93.48-115.36-144.24-2.4-3.41-3.71-6.96-4.11-10.21l44.54-.87Z"/>
  <path class="st29" d="M2095.98,486.37c-.46.26,1.72,4.81,3.48,5.33,14.21,4.2,36.68,10.62,51.3,17.29l32.92,15.02,30.44,14.24c15.54,7.27,32.48,11.77,47.16,20.63,17.7,10.69,34.58,20.23,53.6,29,9.93,4.58,18.81,13.29,28.44,18.48,8.69,4.68,16.14,9.2,24.14,14.45,13.6,8.93,26.63,16.42,41.02,24.76,3.58,2.08,5.79,8.97,8.41,11.24,9.3,8.04,21.59,15.32,31.61,22.42,2.34,18.22,19.15,11.55,21.06,27.81l-123.56.09c-2.97-13.52-14.72-20.67-26.84-26.95l-32.97-17.07-15.94-13.4c-13.18-11.08-30.96-14.77-47.31-21.25-10.75-4.26-18.73-14.01-29.2-18l-84.23-32.15c-9.22-3.52-17.55-8.24-27.14-10.63l-80.35-20.04-36.73-9.61c-30.08-7.87-60.61-10.65-91.78-13.32l-25.49-2.18-28.01-2.04-51.72-1.27c-11.34-.28-21.24-.33-32.57-.02l-51.48,1.4-24.37,1.62-17.86,1.69-.12-35.93,2.28-1.96,451.82.33Z"/>
  <path class="st28" d="M2323.99,486.37c.54,2.59,3.23,6.07,5.7,7.46l15.71,8.78,25.81,15.8c15.64,9.58,30.39,18.18,44.87,29.32,10.17,7.82,21.93,14.32,31.19,22.82,7.78,7.12,14.55,13.64,23.07,19.27,11.42,11.72,24.43,20.72,37.97,30.01,17.11,11.74,31.2,25.53,46.63,39.21l17.99,15.95,13.68,12.58c5.48,5.04,9.13,11.96,9.4,18.71-41.98,2.57-84.3.73-126.45.77-1.91-16.25-18.72-9.58-21.06-27.81-10.02-7.1-22.31-14.38-31.61-22.42-2.62-2.27-4.83-9.16-8.41-11.24-14.39-8.34-27.42-15.83-41.02-24.76-7.99-5.25-15.45-9.77-24.14-14.45-9.63-5.19-18.51-13.9-28.44-18.48-19.01-8.78-35.9-18.31-53.6-29-14.67-8.86-31.62-13.36-47.16-20.63l-30.44-14.24-32.92-15.02c-14.62-6.67-37.1-13.09-51.3-17.29-1.76-.52-3.94-5.07-3.48-5.33h228.01Z"/>
  <polygon class="st28" points="1641.88 488 1641.88 486 1644.16 486.04 1641.88 488"/>
  <path class="st2" d="M2596.02,706.27c11.98-.73,34.47,2.47,45.86,1.14.57-.07,1.76.38,2.33.38l22.09,41.66c32.56,61.42,48.27,129.59,47.85,198.26-4.33-.02-9.82.26-14.02.27l-102.05.06-142.06-.1-180.08.07-459.49-.38-30.44.26h-68l-76.18-.27-.68-141.63.68-98.37,600.65-.6,103.54.12,123.56-.09c42.15-.03,84.47,1.8,126.45-.77Z"/>
  <path class="st4" d="M1024,737.6c4.2.46,10.74,6.12,12.9,10.14l-19.23,61.52,53.71-38.31,54.31,39.13-11.38-39.69c5.68-2.21,17.22-4.69,21.47-.69,4.24,4.6,7.39,8.02,14.04,6.39,10.21-2.5,15.29,1.19,23.77,4.39,11.77,4.43,27.36-.65,39.87,2.24,35.91,8.29,39.03-3.14,51.14,9.16,20.31.1,40.05.81,60.25,1.16l65.98,1.15,7.81,5.86c-.77,1.77-1.28,5.09-2.11,8.86,6.26-3.2,13.57-6.47,19.25-11.05l40.26.12c9.8.03,18.92-.74,27.55-2.81,4.82,3.69,16.43,10.65,21.66,14.03.76.49,2.63.83,3.57,1.03s1.03-2.19,1.23-3.18c.18-.9-1.72-.76-4.42-.97l-1.71-6.6c.02-.77,4.27-2.75,5.2-1.63l4.36,5.22c1.61,1.92,7.01,2.92,10.44,2.92h117.2s.68,141.63.68,141.63l.09,10.52-.76,143.87h-138.45c-1.68.01-5.04,1.31-4.89,1.6-4.7-10.42-8.26-21.44-12.38-34.12l53.35-39.39-65.85-.61-21.84-62.59-20.94,62.52-65.42,1.02,52.71,38.98-7.04,18.68c-.33-1.16-.7-4.39-2.01-4.38l-8.51.05-65.38.22c-1.75,0-6.8-.97-7.18-2.53l-1.88-7.91c-34.47.51-69.61.07-104.51-.51l-84.84-1.42c-5.8-.1-12.95-3.26-29.44-1.85l51.56-39.58-65.51-.87-21.15-62.88-21.43,62.92-65.6.82,51.67,38.42c1.64,3.12-2.83,9.75-4.02,13.49-4.66-2.42-9.64-3.07-16.59-2.97-13.49.19-8.38-8.88-31.53-8.94l-65.53-.18c-4-6.09-9.51-6.32-16-7.16l-34.57-4.45c-10.55-1.36-21.27-1.97-31.47-3.95l-27.6-5.36c-2.18-1.9-6.07-5.31-8.23-6.71-13.43-55.63-13.86-114.03-3.91-170.35l50.64,35.55-19.56,62.73,53.27-37.67,53.74,37.27-19.23-62.11,52.96-39.06-65.72-.74-21.4-63.17-21.11,63.16-62.23-.17c.25-2.87.55-7.01,1.14-9.71,12.53-57.22,36-111.94,68.76-160.23,3.78,19.41,31.6,14.23,41.69,16.96l36.17,9.81c3.29.89,7.47,7.59,12.08,7.59l41.5.04,10.15,3.76,14.4,1.58ZM1316.25,972.48l-20.66-64.65,52.98-39.18-66.05-.92-21.17-63.04-20.94,63.08-66.86.53,53.87,39.39-19.14,62.81,53.55-38.03,54.43,40.02Z"/>
  <path class="st14" d="M2242.46,707.01l-600.65.6.18-123.69c9.74.22,19.61-.65,30-2.34,12.63,1.49,25.32-1.58,37.52-1.55l87.02.17,37.14,2.12,22.41,1.57,23.33,2.2c31.71,2.99,62.76,7.04,93.44,14.8,5.68,3.2,12.02,7.63,18.89,9.19,48.28,10.89,95.13,23.29,141.65,40.32,6.72,4.97,14.21,10.4,22.33,13.54l17.22,6.66,61.56,26.39c3.9,1.67,8.38,6.97,7.96,10.02Z"/>
  <path class="st17" d="M2346,707.13l-103.54-.12c.41-3.05-4.07-8.35-7.96-10.02l-61.56-26.39-17.22-6.66c-8.12-3.14-15.61-8.57-22.33-13.54-46.52-17.03-93.37-29.43-141.65-40.32-6.88-1.55-13.21-5.99-18.89-9.19-30.68-7.76-61.73-11.81-93.44-14.8l-23.33-2.2-22.41-1.57-37.14-2.12-87.02-.17c-12.19-.02-24.88,3.05-37.52,1.55-10.39,1.69-20.26,2.55-30,2.34l-.88-43.85.88-16.14,17.86-1.69,24.37-1.62,51.48-1.4c11.33-.31,21.23-.26,32.57.02l51.72,1.27,28.01,2.04,25.49,2.18c31.17,2.67,61.7,5.45,91.78,13.32l36.73,9.61,80.35,20.04c9.59,2.39,17.92,7.11,27.14,10.63l84.23,32.15c10.47,3.99,18.45,13.74,29.2,18,16.35,6.48,34.13,10.17,47.31,21.25l15.94,13.4,32.97,17.07c12.12,6.27,23.87,13.43,26.84,26.95Z"/>
  <path class="st14" d="M1503.93,799.48l1.71,6.6-.38,3.12c-5.23-3.38-16.85-10.34-21.66-14.03l-31.63-24.25c-13.75,9.23-24.63,17.65-36.17,26.95-5.68,4.58-12.99,7.84-19.25,11.05.83-3.76,1.34-7.09,2.11-8.86,5.54-12.81,13.85-38.32,18.74-53.48l-52.97-39.56,65.67-.77,21.29-62.95,21.46,63.12,65.77.62-53.03,39.33,18.37,53.14Z"/>
  <path class="st8" d="M927.19,621.64l8.39,25.94c-7.58-4.53-13.55-8.83-19.55-13.78,2.67-4.73,6.67-9.23,11.16-12.17Z"/>
  <path class="st8" d="M1119.76,469.43c2.22,5.22,4.05,10.78,5.46,16.32l-15.24-9.69c1.33-3.79,5.63-6.2,9.78-6.64Z"/>
  <path class="st29" d="M1274.15,516.18l8.56,28.69,66.1.54-53.2,39.32,20.38,63.79-54.57-39.05-53.29,37.85,19.17-62.75-52.83-39.07,66.07-.74,11.53-39.22c2.2-7.47,6.63-15.29,9.52-22.97l12.57,33.58Z"/>
  <path class="st8" d="M2879.92,947.99c.77,3.7,2.56,8.77,5.34,12.74,43.69,62.44,88.86,138.49,118.59,207.24l-83.88,1.89c-4.79.11-12.99-2.29-17.6-1.83-.77-3.53-1.95-8.05-4.09-12.17-36.97-71.18-79.72-137.76-129.33-200.79-1.4-1.78-2.61-5.6-2.86-7.12l113.83.03Z"/>
  <path class="st23" d="M2766.09,947.96c.25,1.51,1.46,5.33,2.86,7.12,49.6,63.04,92.36,129.61,129.33,200.79,2.14,4.12,3.32,8.64,4.09,12.17-20.02,2.01-40.39.22-60.45.19-2.43-9.57-7.44-17.86-12.91-27.44-33.94-59.35-71.86-115.42-115.01-168.45l.15-24.64,51.94.25Z"/>
  <path class="st21" d="M3003.84,1167.98c14.96-.34,31.01,1.42,46.07,2.03,31.45,77.86,62.74,156.41,80.41,238.72l-38.46,1.01-84.09-1.73c-.58-7.46-2.41-14.64-4.96-22.99-21.3-69.89-46.1-137.49-78.76-202.82-2.24-4.49-3.52-8.46-4.1-12.33l83.88-1.89Z"/>
  <path class="st5" d="M799.26,858.08c-.59,2.69-.89,6.84-1.14,9.71.06.03-3.81.48-3.35,1.18l1.98,3.02c-9.95,56.32-9.52,114.72,3.91,170.35,5.42,22.46,10.59,45.92,19.22,67.48-44.79,61.04-79.38,129.42-110.52,199.4-1.51,3.39-4.85,5.93-7.56,6.85l-10.65-26.1-20.82,62.3-66.16.64c5.38,6.86,11.3,9.29,17.26,13.53l35.92,25.59-19.69,63.38,54-38.25,25.13,19.37c-.33,5.59-.62,12.24-2.26,18.31-14.08,52.07-25.6,103.36-32.54,157.05-1.62,12.51-9.29,39.51-3.78,36.31-1.49,8.9-4.6,18.39-8.03,27.21l-66.44.67,53.6,39.34-19.66,62.71,28.39-18.39c4.74,2.36,7.14,8.62,7.33,15.02l1.25,41,1.86,22.26c.82,9.8,1.38,18.94,1.47,27.99h-160l-83.22-.67-2.28-29.24c-.76-9.7-.67-18.81-2.42-28.34l-.05-111.74c1.81-11.46,1.71-22.42,2.58-34l1.81-24.1c.48-6.44,1.04-13.43,1.86-19.84l10.05-78.26,15.7,10.19c3.22,1.23,4.95,5.8,3.85,9.28l-18.22,57.81,53.53-38.29,53.61,37.11-19.12-61.93,53.04-39.25-65.89-.72-21.26-62.86-20.99,62.29-14.55.89-2.07-.49c13.11-76.09,34.82-150.54,61.87-223.62,1.81-4.88,2.42-9.57,2.68-13.93l27.19,17.56-20.14-62.86,51.45-37.99c-5.37-1.49-10.13-2.22-14.99-2.13-.61-13.75,65.64-127.09,65-125.18l2.71-8.16,17.7,11.1-19.91,64.03,54.11-38.53,53.61,38.28-19.68-62.99,53.22-39.35-66.23-.81-18.28-56.99c1.39.6,6.21-.65,7.53-2.39,27.69-36.32,55.92-69.96,86.04-103.85,3.58-4.03,6.81-6.98,11.44-7.95Z"/>
  <path class="st23" d="M694.25,972.28l18.28,56.99,66.23.81-53.22,39.35,19.68,62.99-53.61-38.28-54.11,38.53,19.91-64.03-17.7-11.1-35.2-27.5,61.07-1.03c7.41-.13,6.47-5.85,8.3-11.19l17.32-50.74,3.05,5.2Z"/>
  <path class="st3" d="M523.86,1191.77c-4.85.09-8.06,7.77-10.07,12.68l-19.31,47.16c-.6,1.47,1.02,7.2,1.49,6.56-10.99,9.65-33.72,26.24-47.91,35.39l19.24-63.11-27.55-18.88-23.96-18.75,8.28-2.85,56.25.83,21.1-62.72,22.44,63.71Z"/>
  <path class="st8" d="M523.86,1191.77l48.13-.89c4.87-.09,9.62.64,14.99,2.13l-51.45,37.99,20.14,62.86-27.19-17.56c-6.12-3.95-24.87-24.84-32.51-18.13-.47.64-2.1-5.09-1.49-6.56l19.31-47.16c2.01-4.9,5.22-12.59,10.07-12.68Z"/>
  <path class="st5" d="M673.87,1017.82c-1.82,5.35-.89,11.07-8.3,11.19.22-5.34,2.69-11.59,8.3-11.19Z"/>
  <path class="st8" d="M463.94,1513.84l2.07.49c.69,14.55-5.87,23.35-3.99,35.66l-15.7-10.19-32-25.41,49.62-.55Z"/>
  <path class="st3" d="M317.76,1631.73c1.55,5.01,3.06,11.49,4.79,16.2l10.08,27.37,65.92,1.06-52.99,39.2,20.34,63.12-32.01-20.81c-6.76-6.4-14.52-13.65-23.46-16.69-4.57-6.69.25-109.02,4.53-109.28l2.8-.17Z"/>
  <path class="st7" d="M390.08,1352.06c1.87,0,5.21.92,8.09,1.73l-52.64,38.61,20.39,63.49c-3.12-1.75-7.54-3.75-9.53-5.36-10.12-8.19-31.14-23.61-42.02-30.77,5.09-22.74,10.81-45.38,18.16-67.43l57.54-.27Z"/>
  <path class="st7" d="M314.31,1870.4c-.28,4.06-.37,8.54.06,13.81,5.85,70.8,19.44,139.02,33.81,207.41l-30.04-.05c-14.2-63.57-26.01-127.43-32.45-193.2-.99-10.11-1.59-18.86-1.17-27.84l29.78-.12Z"/>
  <path class="st8" d="M468.13,1870.34c-.13,8.99.4,17.73,1.58,27.87,7.15,61.14,18.96,120.21,34.24,179.7,1.26,4.89,1.73,9.64,1.93,13.69l-19.98.76-71.76-.77c-.56-5.98-1.59-11.96-3.23-18.98-15.77-67.2-27.35-134.43-32.64-202.33l89.86.07Z"/>
  <path class="st3" d="M378.27,1870.27c5.29,67.9,16.87,135.13,32.64,202.33,1.65,7.02,2.67,13,3.23,18.98l-40.29.76-25.68-.72c-14.36-68.39-27.95-136.61-33.81-207.41-.44-5.27-.34-9.75-.06-13.81l63.96-.13Z"/>
  <path class="st23" d="M518,1870h24c-3.57,1.1-8.16,1.86-16.18,2.27,6.35,69.59,19.71,138.75,38.55,206.86,1.25,4.5,1.58,8.91,1.68,12.5l-60.17-.03c-.2-4.04-.68-8.8-1.93-13.69-15.28-59.49-27.09-118.56-34.24-179.7-1.18-10.14-1.71-18.88-1.58-27.87l49.87-.34Z"/>
  <rect class="st16" x="518" y="1866" width="232" height="4"/>
  <path class="st3" d="M3051.67,2331.55l6.57.79c.11,2.36-.22,7.01-1.58,9.93-32.29,69.52-67.93,135.78-110.57,199.36-2.56,3.82-4.03,7.82-4.56,11.34l-25.61,1.03-85.63-1.02c.48-3.8,2.32-8.07,4.79-11.62l21.55-30.99c37.64-54.12,71.48-110.05,99.99-169.68.89-1.87,1.11-6.92,1.08-8.29l93.95-.86Z"/>
  <path class="st7" d="M3098.15,2332.38c-.59,3.28-1.55,7.06-3.29,11.03-31.08,70.72-67.27,137.56-109.19,202.51-.96,1.49-1.9,5.92-2.02,7.08l-42.12-.03c.53-3.52,2-7.52,4.56-11.34,42.64-63.58,78.27-129.85,110.57-199.36,1.35-2.91,1.69-7.57,1.58-9.93l39.91.04Z"/>
  <path class="st3" d="M454.25,2331.61l51.84.81c-.83,5.31.92,10.26,3.61,15.59l25.52,50.72,12.7,23.25c21.97,40.24,46.46,77.68,72.04,115.67,3.57,5.3,6.39,10.49,8.44,15.4l-44.54.87-18.17-.89c-1.25-4.42-3.46-9.7-6.5-14.38-22.95-35.4-45.29-69.73-64.42-107.5l-33.59-66.31c-5.52-10.89-10.73-21.24-13-32.38l6.08-.85Z"/>
  <path class="st7" d="M448.17,2332.46c2.27,11.14,7.48,21.49,13,32.38l33.59,66.31c19.13,37.77,41.47,72.1,64.42,107.5,3.04,4.68,5.24,9.96,6.5,14.38l-45.22-.04c-1.02-4.2-3.16-8.77-6.01-13.3-23.61-37.48-46.05-74.4-65.72-114.08l-21.22-42.82-14.05-30.09c-3.22-6.89-5.86-13.59-7.19-20.27l41.91.04Z"/>
  <path class="st3" d="M3130.33,1408.73l27.55,1.04c13.99,64.85,26.73,129.66,32.84,196.67.79,8.62,1.78,16.13,3.11,23.63l-5.8.98-60.21-.94c-7.02-68.39-17.22-136.3-34.19-203.92-1.5-5.97-1.91-11.38-1.77-16.45l38.46-1.01Z"/>
  <path class="st7" d="M3190.12,1410.03c-.15,1.09-.7,6.05-.24,8.05,14.23,62.46,24.83,126.17,31.2,189.87.84,8.4.9,15.32,2.78,22.14h-30.02c-1.33-7.49-2.32-15.01-3.11-23.62-6.11-67.01-18.85-131.82-32.84-196.67l32.24.25Z"/>
  <path class="st21" d="M3064.14,2091.62l66.09.74c-16.64,76.94-44.07,151.65-75.18,224.77-2.31,5.42-3.53,9.57-3.37,14.43l-93.95.86-35.78-.76c.47-2.63,1.32-5.83,2.89-9.17,35.15-74.46,65.43-150.94,85.32-230.13l53.98-.74Z"/>
  <path class="st3" d="M3187.96,1870.12l2.4.59c-3.44,73.13-18.72,149.2-34.2,220.91l-25.94.74-66.09-.74c15.11-64.24,28.17-128.76,35.7-195.18,1.05-9.28,2.21-17.3.53-25.52l87.61-.8Z"/>
  <path class="st21" d="M3127.83,1630.12l60.21.94,1.21,27.02,2.16,34.2-.06,115.4-1.81,37.96c-1.19,8.6-1.82,16.6-1.57,24.48l-87.61.8-46.49-.83c2.43-16.77,1.1-17.1,3.13-38.24,1.31-13.68-1.87-27.64,2.08-41.4.17-26.74.28-53.58-.93-80.62l-1.99-44.45-2.51-34.42,74.18-.83Z"/>
  <path class="st21" d="M414.15,2091.59l71.76.77c17.99,76.42,47.69,150.39,81.06,222.16,3,6.46,5.62,10.93,4.9,17.06l-65.78.83-51.84-.81c-.71-3.82-1.84-8.08-3.83-12.7-31.82-73.84-58.27-149.06-76.56-226.57l40.29-.76Z"/>
  <path class="st28" d="M1148,2793.13l68.14.78c.28,2.13,3.33,7.27,5.65,8.33l32.02,14.58c125.84,57.31,261.74,97.6,400.56,106.78l27.66,1.83,48.19,2.1c16.98.74,34.12.69,50.81-.06l43.01-1.93,27.59-1.88c99.76-6.81,198.32-25.3,291.03-62.02l43.51-17.24c20.49-8.12,40.3-15.63,60.23-25.32l38.02-18.48c1.99-.97,3.87-5.06,3.71-6.67l91.89-.79,20.08.86c-.33,2.22-3.28,6.71-5.78,8.12l-43.71,24.71-21.67,12.01c-16.2,8.98-32.54,17.2-49.47,24.78l-26.04,11.66c-122.54,54.89-281.81,96.51-415.25,103.88l-43.63,2.41c-30.4,1.68-59.96,1.47-90.37-.28l-34.22-1.97-28.34-2.17c-134.26-10.3-265.06-45.1-387.52-100.57l-24.94-11.3c-19.64-8.9-38.5-18.02-57.4-28.51l-24.34-13.51-34.63-20.1c-3.48-2.02-7.57-6.34-8.84-9.15l44.07-.87Z"/>
  <path class="st12" d="M728.43,2552.94l89.49.04,46.05.94c.46,1.56,2.19,4.95,3.45,6.4l13.1,15c14.1,16.14,29.64,30.3,45.13,44.66l24.17,22.4,15.77,14.02,15.01,12.92c50.78,43.7,104.26,82.12,162.56,115.35,3.92,2.23,5.45,4.66,4.84,8.46l-44.07.87-116.05-.09-46.29-.98c-.24-3.46-2.33-6.65-5.42-9.21l-53.44-44.36-13.75-12.41-21.08-19.3c-18.65-17.08-36.44-34.95-53.52-53.56l-19.34-21.07-11.39-12.7-46.46-55.56c-2.61-3.12-4.54-7.53-5.08-10.77l16.32-1.03Z"/>
  <path class="st12" d="M2662.44,2552.98l101.56.16,35.88.84c-1.48,3.95-3.99,8.94-7.13,12.77l-40.75,49.6-14.83,16.88-17.11,18.96c-20.36,22.55-41.4,43.5-63.88,63.88l-16.86,15.28-59.43,50.28c-4.11,3.47-7.27,6.58-7.53,11.32l-52.45,1.02-119.83.04-20.08-.86c0-2.73,2.95-7.07,5.96-8.99l45.26-28.9c48.87-31.21,91.81-68.01,135.15-106.83l74.21-73.83c6.47-6.44,13.21-12.77,15.58-20.72l6.28-.9Z"/>
  <path class="st8" d="M2921.94,2331.65l35.78.76c.03,1.37-.19,6.42-1.08,8.29-28.51,59.63-62.35,115.56-99.99,169.68l-21.55,30.99c-2.47,3.55-4.32,7.82-4.79,11.62l-30.42.99-35.88-.84c.82-4.81,3.32-9.5,7.1-14.25,40.11-50.49,74.35-103.37,105.8-159.71l12.25-21.94c4.4-7.88,8.14-16.76,10.71-24.8l22.09-.79Z"/>
  <path class="st8" d="M571.87,2331.59l22.27.76c34.36,74.64,81.04,143.83,130.81,210.38,2.48,3.31,3.55,7.17,3.47,10.22l-16.32,1.03-83.71-.92c-2.05-4.91-4.87-10.1-8.44-15.4-25.58-37.98-50.06-75.42-72.04-115.67l-12.7-23.25-25.52-50.72c-2.68-5.33-4.43-10.27-3.61-15.59l65.78-.83Z"/>
  <path class="st22" d="M1786,947.88l.08,3.11c0-.12,37.59,2.86,44.16,3.48,169.24,15.75,328.14,86.05,455.21,198.28,5.6,4.95,10.4,8.85,9.98,15.93l-653.41.81-.87-67.49.76-143.87,32.21-3.55c6.5-.72,43.79-3.45,43.8-3.59l.09-3.11h68Z"/>
  <path class="st19" d="M2275.93,948c.6,4.06,4.68,6.33,8.9,9.17,28.59,19.26,55.15,39.19,82.62,62.48-9.07,2.88-13.83,2.13-19.38,5.99l35.12,31.52c22.39,20.09,43.8,41.03,63.71,63.65l31.16,35.4c3.49,3.96,6.17,8.15,5.94,12.68l-188.57-.2c.42-7.08-4.37-10.99-9.98-15.93-127.07-112.23-285.97-182.53-455.21-198.28-6.57-.61-44.16-3.59-44.16-3.48l-.08-3.11,30.44-.26,459.49.38Z"/>
  <path class="st14" d="M2456.01,947.93c.57,2.98,2.62,6.06,5.27,8.54l22.93,21.48,39.61,38.88-5.6,6.82c-1.19,1.45,1.64,5.32,3.19,6.83,6.44,6.29,11.73,12.06,17.53,18.79l12.87,14.92,11.92,13.87,35.78,45.24c2.12,27.24,22.46,32.39,20.66,45.01l-136.16.58c.23-4.53-2.45-8.71-5.94-12.68l-31.16-35.4c-19.91-22.63-41.32-43.56-63.71-63.65l-35.12-31.52c5.55-3.86,10.31-3.12,19.38-5.99-27.47-23.28-54.03-43.22-82.62-62.48-4.22-2.84-8.3-5.11-8.9-9.17l180.08-.07Z"/>
  <path class="st17" d="M2598.07,948.04l5.23,12.24c2.59,6.06,4.81,10.42,8.9,15.43l17.22,21.13,19.11,23.52-7.31,7.08c-1.65,1.59,3.94,6.27,5.24,8.34,5.49,8.76,11.94,18.74,18.44,27.05,5.78,7.38,12.34,15.43,16.55,23.66,2.98,5.81,1.92,20.24-.31,26.39l-14.77,40.72,5.58,14.61-19.82,1.64c-10.27.85-21.63-1.57-31.98-1.53,1.8-12.62-18.54-17.77-20.66-45.01l-35.78-45.24-11.92-13.87-12.87-14.92c-5.8-6.73-11.09-12.5-17.53-18.79-1.55-1.51-4.38-5.38-3.19-6.83l5.6-6.82-39.61-38.88-22.93-21.48c-2.65-2.48-4.7-5.56-5.27-8.54l142.06.1Z"/>
  <path class="st29" d="M2700.12,947.98c2.92,10.18,12.3,20.26,12.29,31.84-.04,21.98-4.95,42.38-8.8,64.3,26.92,36.42,51.21,73.38,74.15,112.48,2.19,3.73,3.63,8.19,4.29,11.55l-42.05.98-68.04-.93-5.58-14.61,14.77-40.72c2.23-6.14,3.29-20.58.31-26.39-4.22-8.22-10.77-16.27-16.55-23.66-6.5-8.3-12.95-18.29-18.44-27.05-1.3-2.08-6.89-6.75-5.24-8.34l7.31-7.08-19.11-23.52-17.22-21.13c-4.08-5.01-6.31-9.36-8.9-15.43l-5.23-12.24,102.05-.06Z"/>
  <path class="st28" d="M2714.15,947.71l-.15,24.64c43.15,53.03,81.07,109.1,115.01,168.45,5.48,9.58,10.48,17.87,12.91,27.44l-59.88-.09c-.65-3.35-2.1-7.81-4.29-11.55-22.94-39.1-47.23-76.06-74.15-112.48,3.85-21.92,8.77-42.32,8.8-64.3.02-11.58-9.37-21.66-12.29-31.84,4.21,0,9.69-.29,14.02-.27Z"/>
  <path class="st19" d="M1718,947.88l-.09,3.11c0,.14-37.29,2.87-43.8,3.59l-32.21,3.55-.09-10.52,76.18.27Z"/>
  <path class="st10" d="M1032.18,1082.06l-14.25,50.08,53.66-38.03,53.49,37.76-18.42-62.13c16.49-1.41,23.64,1.76,29.44,1.85l84.84,1.42c34.9.58,70.04,1.02,104.51.51l1.88,7.91c.37,1.56,5.42,2.54,7.18,2.53l65.38-.22,8.51-.05c1.3,0,1.68,3.22,2.01,4.38l-12.62,44.53,53.74-38.5,52.97,37.9-6.68-28.41c-.16-.29,3.2-1.59,4.89-1.59h138.45s.87,67.48.87,67.48l-.04,120.4.06,119.6-.99,16.14-143.38.27c-5.01-10.17-8.43-21.52-12.1-33.4l53.17-39.4-66.23-.93-21.01-62.39-21.35,62.46-66.02.8,53.3,39.32-15.47,45.77c-4.65-3.75-7.69-4.32-14.04-4.32l-155.1.03c-4.19-2.78-9.91-5.41-14.57-5.43l-82.4-.25-18.1-1.91c-4.8-10.13-8.02-20.54-12.42-33.46l53.35-39.66-65.88-.68-21.23-62.65-20.96,62.42-46.69-.17c-.77-2.13-2.75-4.97-4.96-6.79-20.54-16.88-38.8-33.93-57.33-53.01-1.91-1.96-5.21-3.71-7.43-4.3l-18.83-56.77,53.55-39.74-66.22-.58-21.14-62.82-19.95,58.08c-6.56.99-39.89-71.66-41.74-76.29-8.63-21.56-13.8-45.01-19.22-67.48,2.16,1.41,6.04,4.81,8.23,6.71l27.6,5.36c10.2,1.98,20.91,2.59,31.47,3.95l34.57,4.45c6.49.83,12,1.06,16,7.16l65.53.18c23.14.06,18.04,9.13,31.53,8.94,6.95-.1,11.93.55,16.59,2.97ZM1261.83,1255.58l52.21,37.38-18.41-62.13,53.25-39.34-66.39-.88-20.9-62.52-21.26,62.64-65.98.84,52.99,39.48-19.86,63.21,54.35-38.67ZM1126,1133c0-.55-.45-1-1-1s-1,.45-1,1,.45,1,1,1,1-.45,1-1ZM1506,1133c0-.55-.45-1-1-1s-1,.45-1,1,.45,1,1,1,1-.45,1-1Z"/>
  <path class="st14" d="M1106.66,1069.74l18.42,62.13-53.49-37.76-53.66,38.03,14.25-50.08c1.19-3.74,5.66-10.37,4.02-13.49l-51.67-38.42,65.6-.82,21.43-62.92,21.15,62.88,65.51.87-51.56,39.58Z"/>
  <polygon class="st14" points="1316.25 972.48 1261.82 932.46 1208.27 970.5 1227.42 907.69 1173.54 868.3 1240.4 867.77 1261.35 804.69 1282.52 867.73 1348.57 868.65 1295.59 907.83 1316.25 972.48"/>
  <path class="st22" d="M1497.81,1103.6l6.68,28.41-52.97-37.9-53.74,38.5,12.62-44.53,7.04-18.68-52.71-38.98,65.42-1.02,20.94-62.52,21.84,62.59,65.85.61-53.35,39.39c4.12,12.69,7.68,23.7,12.38,34.12Z"/>
  <path class="st29" d="M796.76,871.99l-1.98-3.02c-.46-.7,3.41-1.14,3.35-1.18l62.23.17,21.11-63.16,21.4,63.17,65.72.74-52.96,39.06,19.23,62.11-53.74-37.27-53.27,37.67,19.56-62.73-50.64-35.55Z"/>
  <path class="st20" d="M1483.59,795.17c-8.63,2.08-17.75,2.84-27.55,2.81l-40.26-.12c11.54-9.3,22.42-17.72,36.17-26.95l31.63,24.25Z"/>
  <path class="st20" d="M1505.25,809.2l.38-3.12c2.7.21,4.6.07,4.42.97-.2.99-.33,3.36-1.23,3.18s-2.81-.54-3.57-1.03Z"/>
  <path class="st29" d="M1114.31,770.39l11.38,39.69-54.31-39.13-53.71,38.31,19.23-61.52c-2.15-4.02-8.7-9.68-12.9-10.14l-39.33-30.7,65.56-.62,21.24-62.82,21.34,62.92,65.84.58-53.14,39.3,8.8,24.12Z"/>
  <path class="st12" d="M2782.04,1168.15l59.88.09c20.05.03,40.42,1.82,60.45-.19,4.61-.46,12.8,1.94,17.6,1.83.59,3.87,1.86,7.84,4.1,12.33,32.65,65.34,57.46,132.93,78.76,202.82,2.54,8.35,4.38,15.53,4.96,22.99l-9.76,1.93c-19.74-2.24-40.3-.05-60.07-.07l-55.87-.06-61.77.46-66.31-.82,2.15-1.44,88.11-.04c-24.95-79.17-56.93-154.22-98.57-225.32-2.87-4.9-4.75-9.12-5.7-13.51l42.05-.98Z"/>
  <path class="st8" d="M3007.78,1408.01l84.09,1.73c-.14,5.08.27,10.49,1.77,16.45,16.97,67.63,27.16,135.53,34.19,203.92l-74.18.83-15.53-.87c-7.78-74.2-21.14-147.74-40.1-220.14l9.76-1.93Z"/>
  <path class="st26" d="M861.63,1186.11c-1.02,2.97-3.49,4.83-7.18,4.86l-60.15.61,52.9,39.01-19.53,63.19,54.04-38.09,49.4,35.66c1.5,1.08,4.09-3.11,3.13-3.4,2.22.59,5.52,2.34,7.43,4.3,18.53,19.07,36.78,36.13,57.33,53.01,2.21,1.82,4.19,4.66,4.96,6.79-6.22-.02-12.72.71-19.44,1.48l52.78,38.67-19.63,63.12,53.72-38.21,54.32,39.03-7.93-29.9,18.1,1.91,82.4.25c4.66.01,10.38,2.64,14.57,5.43l155.1-.03c6.35,0,9.38.57,14.04,4.32-1.67,4.93-2.63,10.59-4.09,17.49l53.67-38.41,53.54,38.35-7.42-29.68,143.38-.27.76,204.75-.36,235.69-891.45-.07h-72c-.1-9.05-.65-18.19-1.47-27.99l-1.86-22.26-1.25-41c-.19-6.39-2.59-12.65-7.33-15.02l24.91-19.6,54.9,38.89-20.3-63.49,52.95-39.17-66.01-1.01-21.07-62.11-13.24,34.94c-5.51,3.2,2.16-23.8,3.78-36.31,6.94-53.68,18.46-104.97,32.54-157.05,1.64-6.07,1.93-12.72,2.26-18.31l29,19.29-20.2-63.34,53.12-39.38-66.38-.91-10.54-36.11c2.71-.92,6.05-3.46,7.56-6.85,31.14-69.98,65.73-138.37,110.52-199.4,1.86,4.64,35.18,77.29,41.74,76.29ZM881.59,1578.97l52.43,36.76-18.37-61.71,53.32-39.53-66.47-.74-21.12-62.4-21.13,62.54-66.32.63,53.49,39.43-20.4,63.46,54.57-38.45ZM1261.37,1578.73l52.49,36.95-17.99-62.04,53.07-39.2-66.41-.68-21-62.76-21.02,62.71-66.26,1,53.05,39.17-19.73,63.17,53.8-38.33ZM1071.95,1740.26l53.73,38.59-19.97-63.64,53.18-39.18-66.39-.72-21.29-62.13-20.91,62.21-66.86.48,53.92,39.53-19.85,63.29,54.43-38.43ZM1451.93,1740.27l53.88,38.8-20.12-63.84,53.21-39.19-66.4-.72-21.29-62.13-20.91,62.23-66.99.42,54.06,39.56-19.86,63.3,54.42-38.41Z"/>
  <path class="st23" d="M462.03,1549.99c-1.89-12.3,4.68-21.11,3.99-35.66l14.55-.89,20.99-62.29,21.26,62.86,65.89.72-53.04,39.25,19.12,61.93-53.61-37.11-53.53,38.29,18.22-57.81c1.1-3.48-.63-8.05-3.85-9.28Z"/>
  <path class="st12" d="M505.88,2091.6l60.17.03h63.71s10.42.76,10.42.76c20.5,66.19,46.97,130.31,78.72,192.53l15.65,28.86c3.28,6.05,7.42,11.68,5.69,17.88l-12.17.71h-54.08l-79.86-.02-22.27-.76c.71-6.14-1.9-10.6-4.9-17.06-33.37-71.78-63.07-145.75-81.06-222.16l19.98-.76Z"/>
  <path class="st28" d="M588,1870c-.59,6.8-.52,13.69.25,21.46,7.99,60.36,19.25,119.12,36.01,177.72,2.32,8.12,3.99,15.23,5.5,22.45h-63.71c-.09-3.6-.43-8.01-1.68-12.51-18.85-68.1-32.2-137.27-38.55-206.86,8.02-.41,12.61-1.17,16.18-2.27h46Z"/>
  <path class="st0" d="M2416.15,1630.1l153.85.76,5.82,49.16c.74,6.23,1.71,13.96,1.71,20.09l.04,99.8c0,5.4-.95,12.51-1.59,18.14l-5.97,52.04-214.01.78-721.93-.6-484.07-.26h-400v-4l891.45.07.36-235.69,774.35-.27Z"/>
  <path class="st14" d="M750,1870h74c8.36,70.96,26.08,140.72,51.39,208.37,1.81,4.85,2.56,9.08,2.61,13.28h-96c-.09-4.06-.62-8.89-2.25-13.6-20.91-60.64-35.09-122.04-44.23-185.64-1.17-8.14-1.5-15.28-1.52-22.41h16Z"/>
  <path class="st17" d="M734,1870c.02,7.13.35,14.27,1.52,22.41,9.15,63.6,23.32,125,44.23,185.64,1.62,4.71,2.16,9.54,2.25,13.59h-78.01c-.41-3.96-1.18-8.26-2.67-13.11-20.99-68.61-36.44-138.01-43.33-208.53h76Z"/>
  <path class="st29" d="M658,1870c6.88,70.52,22.33,139.92,43.33,208.53,1.49,4.86,2.25,9.15,2.67,13.1l-63.81.75-10.42-.75c-1.51-7.22-3.18-14.33-5.5-22.45-16.76-58.6-28.02-117.36-36.01-177.72-.77-7.77-.84-14.66-.25-21.46h70Z"/>
  <path class="st12" d="M2882.14,2091.56l55.7.05,62.01-.11,10.32.85c-19.89,79.19-50.17,155.67-85.32,230.13-1.58,3.34-2.43,6.53-2.89,9.17l-22.09.79h-87.89l-70.46-.81c.2-4.03,1.68-7.51,4.27-11.91,39.84-67.81,71.09-139.02,96-213.69,1.64-4.91,2.13-9.56,2.13-13.67l38.25-.78Z"/>
  <path class="st8" d="M3053.86,1870.09l46.49.83c1.68,8.23.53,16.24-.53,25.52-7.52,66.42-20.59,130.93-35.7,195.18l-53.98.74-10.32-.85,4.65-19.03c14.89-60.98,25.86-121.81,33.47-184.24l2.1-17.21,13.82-.94Z"/>
  <path class="st12" d="M3038.12,1630.08l15.53.87,2.51,34.42,1.99,44.45c1.21,27.05,1.1,53.89.93,80.62-3.95,13.76-.77,27.73-2.08,41.4-2.03,21.14-.69,21.46-3.13,38.24l-13.82.94-61.8-.69,2.02-30.29,1.9-28.02.02-122.07-2.02-27.99-1.95-31.2,1.76-.49,58.15-.19Z"/>
  <path class="st24" d="M2547.63,2553.04l108.53.83c-2.37,7.95-9.11,14.28-15.58,20.72l-74.21,73.83c-43.34,38.81-86.28,75.62-135.15,106.83l-45.26,28.9c-3,1.92-5.96,6.25-5.96,8.99l-91.89.79-148.18.08-204.35-.98.52-3.64c.15-1.06,3.92-2.42,5.38-2.69,177.1-32.16,342.43-109.32,481.45-223.42,3.97-3.26,6.21-5.6,7.06-9.37l117.64-.88Z"/>
  <path class="st24" d="M882.1,2552.94c26.35-1.43,53.07.88,79.52-.07l110.37.26,3.91.86c-4.98,3.36,43.22,38.08,47.24,40.79l80.34,54.11c55.43,37.33,115.47,64.67,178.07,87.5l26.67,9.73c7.92,2.89,15.76,5.88,23.92,8.38l21.34,6.52c37.75,11.54,75.7,19.63,114.48,27.32l4.17.83c1.11.22.53,2.83.33,3.86l-208.39,1-147.94-.11-68.14-.78c.61-3.79-.93-6.22-4.84-8.46-58.29-33.23-111.77-71.65-162.56-115.35l-15.01-12.92-15.77-14.02-24.17-22.4c-15.49-14.35-31.03-28.52-45.13-44.66l-13.1-15c-1.27-1.45-2.99-4.85-3.45-6.4l18.14-.99Z"/>
  <path class="st29" d="M1364.07,2794.03c-.06,1.57,2.41,5.1,4.9,6,96.04,34.61,194.94,56.26,296.87,64.32,10.51.83,20.11,1.97,30.19,1.98l110.11.09c10.66,0,20.89-1.23,31.94-2.11,101.6-8.09,199.91-29.52,295.67-63.77,3.9-1.39,6.09-3.54,6.18-6.51l148.18-.08c.16,1.62-1.72,5.71-3.71,6.67l-38.02,18.48c-19.93,9.69-39.74,17.2-60.23,25.32l-43.51,17.24c-92.71,36.73-191.27,55.21-291.03,62.02l-27.59,1.88-43.01,1.93c-16.69.75-33.83.8-50.81.06l-48.19-2.1-27.66-1.83c-138.82-9.18-274.72-49.48-400.56-106.78l-32.02-14.58c-2.32-1.06-5.36-6.19-5.65-8.33l147.94.11Z"/>
  <path class="st23" d="M674,2332.36c1.38,7.33,4.67,13.52,9.01,21.01,36.74,63.45,77.26,123.35,123.97,179.95,5.33,6.46,12.17,11.26,10.93,19.67l-89.49-.04c.08-3.05-.99-6.91-3.47-10.22-49.78-66.55-96.45-135.75-130.81-210.38l79.86.02Z"/>
  <path class="st28" d="M728.08,2332.36c.13,3.28,1.31,6.62,3.54,10.4,34.77,58.9,72.37,114.87,116.74,166.74l15.6,18.24c11.24,13.14,20.63,18.85,18.15,25.21l-18.14.99-46.05-.94c1.24-8.41-5.61-13.21-10.93-19.67-46.7-56.6-87.22-116.5-123.97-179.95-4.34-7.49-7.63-13.69-9.01-21.01h54.08Z"/>
  <path class="st29" d="M2741.5,2331.62l70.46.81c-.93,3.73-2.33,8.93-4.77,13.21-39.27,68.87-83.97,133.61-135.93,193.53-4.2,4.85-7.14,8.64-8.83,13.81l-6.28.9-108.53-.83c-3.79-4.16,19.95-25.65,28.42-34.98l21.05-23.16c43.21-47.54,80.11-98.82,114.08-153.57,1.65-2.65,2.6-6.62,2.88-9l27.44-.72Z"/>
  <path class="st23" d="M2899.85,2332.44c-2.56,8.04-6.31,16.92-10.71,24.8l-12.25,21.94c-31.44,56.34-65.69,109.23-105.8,159.71-3.78,4.75-6.28,9.44-7.1,14.25l-101.56-.16c1.69-5.17,4.62-8.96,8.83-13.81,51.95-59.92,96.66-124.66,135.93-193.53,2.44-4.28,3.84-9.48,4.77-13.21h87.89Z"/>
  <path class="st25" d="M2483.99,1168.89l136.16-.58c10.35-.04,21.71,2.38,31.98,1.53-.4,2.19-1.43,5.51-2.6,7.87-19.36,39.02-48.32,69.38-75.54,100.62l-14.44,1.07-57.59.56-20.03.81c-8.87.36-16.87,2.5-24.64,6.89l-206.27,1.28-316.69.9-20.59.04-271.76.02.04-120.4,653.41-.81,188.57.2Z"/>
  <path class="st6" d="M2671.95,1168.19l68.04.93c.95,4.39,2.83,8.61,5.7,13.51,41.64,71.11,73.62,146.15,98.57,225.32l-88.11.04-2.15,1.44c-3.29-.04-8.79.29-11.88.29l-92.26-.02-117.83.16-107.96-.39c-.83-.55-.21-5.11,2.82-7.02,51.95-32.65,106.14-77.1,147.1-124.13,27.21-31.25,56.18-61.6,75.54-100.62,1.17-2.36,2.2-5.68,2.6-7.87l19.82-1.64Z"/>
  <path class="st13" d="M2338.12,1409.72c2.31,6.01,5.23,11.25,8.79,17.75,32.12,58.64,54.58,120.63,68.5,185.83,1.36,6.37,1.82,11.6.74,16.8l-774.35.27-.76-204.75.99-16.14,696.08.23Z"/>
  <path class="st11" d="M2573.99,1278.33c-40.96,47.03-95.15,91.48-147.1,124.13-3.03,1.91-3.65,6.46-2.82,7.02l-85.95.24-696.08-.23-.06-119.6,271.76-.02,20.59-.04,316.69-.9,206.27-1.28c7.77-4.39,15.77-6.53,24.64-6.89l20.03-.81,57.59-.56,14.44-1.07Z"/>
  <path class="st22" d="M1497.67,1425.9l7.42,29.68-53.54-38.35-53.67,38.41c1.47-6.9,2.43-12.56,4.09-17.49l15.47-45.77-53.3-39.32,66.02-.8,21.35-62.46,21.01,62.39,66.23.93-53.17,39.4c3.67,11.87,7.09,23.22,12.1,33.4Z"/>
  <polygon class="st19" points="1261.83 1255.58 1207.49 1294.24 1227.35 1231.03 1174.35 1191.55 1240.33 1190.71 1261.59 1128.07 1282.49 1190.6 1348.88 1191.48 1295.64 1230.83 1314.04 1292.95 1261.83 1255.58"/>
  <path class="st14" d="M934.22,1287.95c.97.29-1.63,4.48-3.13,3.4l-49.4-35.66-54.04,38.09,19.53-63.19-52.9-39.01,60.15-.61c3.7-.04,6.16-1.89,7.18-4.86l19.95-58.08,21.14,62.82,66.22.58-53.55,39.74,18.83,56.77Z"/>
  <circle class="st14" cx="1125" cy="1133" r="1"/>
  <circle class="st22" cx="1505" cy="1133" r="1"/>
  <path class="st17" d="M2754,1409.44l66.31.82c.2,4.01.9,8.27,2.4,13.21,20.64,67.79,35.83,136.77,41.35,206.54l-73.94.04c1.31-6.56.6-12.98-.57-20.59-7.99-52.12-18.47-102.51-33.88-152.89-5-16.36-9.66-31.31-13.56-46.84,3.09,0,8.59-.33,11.88-.29Z"/>
  <path class="st29" d="M2882.08,1409.81c17.61,71.47,37.52,146.68,42.08,220.31l-60.1-.1c-5.52-69.76-20.71-138.74-41.35-206.54-1.5-4.93-2.2-9.2-2.4-13.21l61.77-.46Z"/>
  <path class="st23" d="M2998.02,1409.94c18.96,72.4,32.32,145.94,40.1,220.14l-58.15.19c-8.16-74.64-22.21-148.05-42.02-220.4,19.77.02,40.33-2.17,60.07.07Z"/>
  <path class="st28" d="M2937.95,1409.87c19.81,72.35,33.86,145.76,42.02,220.4l-1.76.49-54.05-.65c-4.56-73.63-24.47-148.83-42.08-220.31l55.87.06Z"/>
  <polygon class="st22" points="1261.37 1578.73 1207.57 1617.06 1227.3 1553.89 1174.24 1514.72 1240.5 1513.72 1261.52 1451.01 1282.53 1513.77 1348.94 1514.45 1295.87 1553.65 1313.85 1615.69 1261.37 1578.73"/>
  <polygon class="st14" points="881.59 1578.97 827.02 1617.41 847.42 1553.95 793.93 1514.52 860.25 1513.89 881.37 1451.35 902.49 1513.75 968.97 1514.48 915.64 1554.01 934.01 1615.73 881.59 1578.97"/>
  <path class="st29" d="M701.81,1316.07l10.54,36.11,66.38.91-53.12,39.38,20.2,63.34-29-19.29-25.13-19.37-54,38.25,19.69-63.38-35.92-25.59c-5.95-4.24-11.88-6.67-17.26-13.53l66.16-.64,20.82-62.3,10.65,26.1Z"/>
  <polygon class="st22" points="1451.93 1740.27 1397.51 1778.68 1417.37 1715.38 1363.31 1675.83 1430.3 1675.4 1451.21 1613.17 1472.5 1675.31 1538.9 1676.03 1485.69 1715.23 1505.81 1779.07 1451.93 1740.27"/>
  <polygon class="st22" points="1071.95 1740.26 1017.52 1778.69 1037.36 1715.4 983.45 1675.87 1050.3 1675.39 1071.21 1613.18 1092.5 1675.31 1158.88 1676.03 1105.7 1715.21 1125.68 1778.85 1071.95 1740.26"/>
  <path class="st17" d="M666.09,1759.74l-28.39,18.39,19.66-62.71-53.6-39.34,66.44-.67c3.42-8.82,6.54-18.31,8.03-27.21l13.24-34.94,21.07,62.11,66.01,1.01-52.95,39.17,20.3,63.49-54.9-38.89-24.91,19.6Z"/>
  <path class="st19" d="M1117.76,1426.25l7.93,29.9-54.32-39.03-53.72,38.21,19.63-63.12-52.78-38.67c6.71-.77,13.22-1.5,19.44-1.48l46.69.17,20.96-62.42,21.23,62.65,65.88.68-53.35,39.66c4.41,12.92,7.62,23.34,12.42,33.46Z"/>
  <path class="st6" d="M703.99,2091.63h78.01s96,.02,96,.02l12.34.71c18.51,53.16,68.52,146.72,102.46,191.42l25.77,33.93c3.31,4.36,5.65,9.14,5.66,13.95l-26.24.69-114.42.05-87.62-.02-55.71-.72c1.73-6.2-2.41-11.83-5.69-17.88l-15.65-28.86c-31.75-62.22-58.22-126.34-78.72-192.53l63.81-.75Z"/>
  <path class="st29" d="M740.25,2331.65l55.71.72c12.91,37.14,95.31,140.9,123.18,170.51l27.15,28.86,11.64,12.9c1.61,1.79,3.33,5.9,3.69,8.23-26.46.95-53.17-1.36-79.52.07,2.48-6.37-6.91-12.07-18.15-25.21l-15.6-18.24c-44.37-51.87-81.97-107.84-116.74-166.74-2.23-3.77-3.41-7.12-3.54-10.4l12.17-.71Z"/>
  <path class="st13" d="M2356,1870.86c-8.75,44.87-21.16,90.1-41.77,131.48l-24.18,48.55c-5.93,11.9-24.18,37.96-20.29,40.76h-1031.75c-.62-5.37-3.19-9.78-6.68-15.41-39.24-63.33-68.51-133.4-81.32-206.23l484.07.26,721.93.6Z"/>
  <path class="st22" d="M2570.01,1870.08l25.98.79c-10.97,72.57-30.09,143.34-59.55,211.49-1.34,3.09-2.04,6.87-2.33,9.28h-264.36c-3.89-2.8,14.36-28.87,20.29-40.77l24.18-48.55c20.61-41.37,33.02-86.61,41.77-131.48l214.01-.78Z"/>
  <path class="st22" d="M1150,1870c12.81,72.83,42.08,142.9,81.32,206.23,3.49,5.63,6.06,10.04,6.68,15.41h-236.23c-.9-10.13-4.61-18.86-8.84-29.2-24.07-58.84-40.61-119.31-50.94-182.33-.49-2.97-.07-7.93,0-10.11h208Z"/>
  <path class="st6" d="M2592.06,1630l111.8.11,52.13.76,2.61,22.94,2.02,24.19c.78,9.38.89,18.38,1.41,28l1.33,24.25c.75,13.69.99,27.82,0,41.49-1.74,24.05-.71,29.58-2.76,52.24l-2.01,22.19-2.64,23.83-41.94.85-118.01.02-25.98-.79,5.97-52.04c.65-5.63,1.59-12.74,1.59-18.14l-.04-99.8c0-6.12-.97-13.85-1.71-20.09l-5.82-49.16,22.06-.86Z"/>
  <path class="st22" d="M2424.07,1409.48l107.96.39c.57,3.39,1.59,6.84,3.32,10.95,26.68,63.49,45.59,128.73,56.59,197.03.61,3.8.15,9.19.11,12.14l-22.06.86-153.85-.76c1.08-5.2.62-10.43-.74-16.8-13.92-65.2-36.38-127.2-68.5-185.83-3.56-6.5-6.48-11.74-8.79-17.75l85.95-.24Z"/>
  <path class="st19" d="M942,1870c-.07,2.17-.49,7.14,0,10.11,10.32,63.02,26.87,123.49,50.94,182.33,4.23,10.34,7.94,19.07,8.84,29.21l-111.43.71-12.34-.71c-.05-4.2-.8-8.43-2.61-13.28-25.3-67.64-43.03-137.4-51.39-208.37h118Z"/>
  <path class="st6" d="M2661.65,2091.61l86.14-.04,73.96.02,22.13.76c0,4.12-.49,8.76-2.13,13.67-24.91,74.67-56.16,145.88-96,213.69-2.59,4.41-4.07,7.88-4.27,11.91l-27.44.72-100.23.12-126.05-.08-11.94-.72c.22-1.91,1.47-6.64,3.21-8.82,52.17-65.18,93.44-136.63,126.28-213.28,2.68-6.25,4.28-11.57,4.67-17.21l51.65-.73Z"/>
  <path class="st23" d="M3040.05,1871.03l-2.1,17.21c-7.61,62.43-18.57,123.26-33.47,184.24l-4.65,19.03-62.01.11c.26-5.07,1.32-9.69,2.91-15.6,18.26-67.8,32.88-136.32,37.5-205.67l61.8.69Z"/>
  <path class="st29" d="M2926.09,1870.89c-8.18,74.85-24.01,148.05-43.96,220.68l-38.25.78-22.13-.76c1.45-7.65,3.44-15.04,6.02-23.65,19.45-64.74,32.52-130.5,39.88-196.85l58.43-.2Z"/>
  <path class="st28" d="M2978.24,1870.34c-4.62,69.35-19.25,137.87-37.5,205.67-1.59,5.92-2.65,10.53-2.91,15.6l-55.7-.05c19.95-72.63,35.78-145.83,43.96-220.68l52.15-.55Z"/>
  <path class="st24" d="M2790.12,1630.05l73.94-.04,60.1.1,54.05.65,1.95,31.2,2.02,27.99-.02,122.07-1.9,28.02-2.02,30.29-52.15.55-58.43.2-73.22-.13-38.5-.96,2.64-23.83,2.01-22.19c2.06-22.66,1.02-28.19,2.76-52.24.99-13.67.75-27.8,0-41.49l-1.33-24.25c-.53-9.62-.63-18.62-1.41-28l-2.02-24.19-2.61-22.94,34.13-.81Z"/>
  <path class="st6" d="M1228.45,2553.03l303.61.02,431.5-.02,288.44.02h172.05l5.94.88c-.85,3.77-3.08,6.11-7.06,9.37-139.02,114.1-304.36,191.27-481.45,223.42-1.46.27-5.23,1.62-5.38,2.69l-.52,3.64-363.11-.02c.2-1.03.78-3.64-.33-3.86l-4.17-.83c-38.78-7.68-76.73-15.78-114.48-27.32l-21.34-6.52c-8.15-2.49-15.99-5.48-23.92-8.38l-26.67-9.73c-62.6-22.84-122.63-50.17-178.07-87.5l-80.34-54.11c-4.02-2.71-52.22-37.43-47.24-40.79l152.55-.96Z"/>
  <path class="st17" d="M1572.46,2793.02l363.11.02,204.35.98c-.09,2.98-2.28,5.12-6.18,6.51-95.76,34.25-194.06,55.68-295.67,63.77-11.05.88-21.29,2.12-31.94,2.11l-110.11-.09c-10.08,0-19.68-1.14-30.19-1.98-101.93-8.06-200.82-29.71-296.87-64.32-2.49-.9-4.95-4.42-4.9-6l208.39-1Z"/>
  <path class="st17" d="M2714.06,2332.34c-.28,2.38-1.23,6.34-2.88,9-33.97,54.75-70.87,106.03-114.08,153.57l-21.05,23.16c-8.47,9.32-32.22,30.82-28.42,34.98l-117.64.88-5.94-.88c.26-6.24,6.22-9.61,11.2-13.98l17.02-14.96,24.77-23.21c46.26-43.36,95.24-102.14,131.55-154.05,3.4-4.87,5.34-9.22,5.24-14.38l100.23-.12Z"/>
  <path class="st14" d="M997.99,2332.35c.04,1.33,1.06,5.9,2.33,7.52,63.6,80.87,138.68,150.14,224.45,207.08,1.83,1.22,3.8,4.93,3.68,6.09l-152.55.96-3.91-.86c-.18-2.4-2.16-6.89-4.02-8.55l-15.12-13.5-22.97-21.06c-47.85-43.87-108.21-115.19-144.43-169.51-1.61-2.41-2.27-6.08-1.89-8.12l114.42-.05Z"/>
  <path class="st17" d="M883.57,2332.39c-.38,2.04.28,5.71,1.89,8.12,36.22,54.32,96.58,125.64,144.43,169.51l22.97,21.06,15.12,13.5c1.86,1.66,3.85,6.15,4.02,8.55l-110.37-.26c-.36-2.33-2.08-6.44-3.69-8.23l-11.64-12.9-27.15-28.86c-27.87-29.62-110.27-133.37-123.18-170.51l87.62.02Z"/>
  <path class="st19" d="M2649.86,1409.71c.25,11.44,5.79,22.04,9.73,33.95,20.37,61.52,34.02,123.44,44.26,186.44l-111.8-.11c.04-2.96.5-8.34-.11-12.14-10.99-68.29-29.91-133.53-56.59-197.03-1.73-4.11-2.75-7.56-3.32-10.95l117.83-.16Z"/>
  <path class="st14" d="M2742.12,1409.73c3.9,15.53,8.55,30.48,13.56,46.84,15.4,50.38,25.89,100.77,33.88,152.89,1.17,7.61,1.88,14.03.57,20.59l-34.13.81-52.13-.76c-10.24-63-23.89-124.92-44.26-186.44-3.94-11.91-9.48-22.52-9.73-33.95l92.26.02Z"/>
  <path class="st0" d="M1001.77,2091.65h236.23s1031.75-.01,1031.75-.01h264.36s75.88.7,75.88.7c-.39,5.64-2,10.96-4.67,17.21-32.84,76.65-74.11,148.09-126.28,213.28-1.74,2.18-2.99,6.91-3.21,8.82l-141.76.71h-1165.99s-143.84-.7-143.84-.7c0-4.81-2.35-9.59-5.66-13.95l-25.77-33.93c-33.94-44.69-83.95-138.26-102.46-191.42l111.43-.71Z"/>
  <path class="st19" d="M1024.24,2331.66l143.84.69c-.08,3.63,2.24,7.29,5.34,10.05l11.69,10.39,30.43,27.8c4.1,3.75,8.76,6.87,13.37,10.53,42.63,33.81,86.46,63.93,134.45,89.7,12.59,6.76,24.12,12.86,37.08,18.49l19.33,8.41,16.82,7.28,15.68,6.3,20.59,7.97c16.84,6.52,39.46,13.65,56.49,18.22,1.38.37,3.45,5.39,2.72,5.56l-303.61-.02c.12-1.16-1.85-4.87-3.68-6.09-85.77-56.93-160.85-126.21-224.45-207.08-1.27-1.62-2.28-6.19-2.33-7.52l26.24-.69Z"/>
  <path class="st19" d="M2714,1870.85c-8.58,68.69-24.6,135.88-47.69,201.84l-3.78,10.8c-.79,2.25-1.14,5.9-.87,8.11l-51.65.73-75.88-.69c.28-2.41.99-6.19,2.33-9.28,29.46-68.15,48.58-138.93,59.55-211.49l118.01-.02Z"/>
  <path class="st14" d="M2755.94,1870.01l38.5.96c-3.84,63.98-24.2,146.17-44.34,208.53-1.43,4.43-2.1,8.44-2.31,12.08l-86.14.04c-.27-2.21.08-5.86.87-8.11l3.78-10.8c23.09-65.96,39.11-133.16,47.69-201.84l41.94-.85Z"/>
  <path class="st19" d="M2475.84,2331.65l11.94.72c0,4.6-1.85,10.29-5.18,14.17l-23.24,27.08-19.2,21.29c-53.33,59.14-116.27,107.91-183.75,150.83-2.65,1.68-4.42,5.15-4.41,7.3l-288.44-.02-.64-2.33c-.19-.69,2.57-2.35,3.42-2.58,128.53-34.66,245.54-100.23,344.24-189.17l19.41-17.49c2.01-1.81,3.92-6.48,4.08-9.1l141.76-.71Z"/>
  <path class="st14" d="M2613.83,2332.46c.09,5.16-1.84,9.51-5.24,14.38-36.31,51.92-85.29,110.69-131.55,154.05l-24.77,23.21-17.02,14.96c-4.98,4.38-10.94,7.75-11.2,13.98h-172.05c0-2.15,1.77-5.62,4.41-7.3,67.48-42.92,130.42-91.69,183.75-150.83l19.2-21.29,23.24-27.08c3.33-3.88,5.19-9.57,5.18-14.17l126.05.08Z"/>
  <path class="st17" d="M2867.66,1871.09c-7.36,66.35-20.43,132.11-39.88,196.85-2.58,8.6-4.58,15.99-6.02,23.65l-73.96-.02c.21-3.63.88-7.64,2.31-12.08,20.14-62.36,40.5-144.54,44.34-208.53l73.22.13Z"/>
  <path class="st22" d="M2334.07,2332.36c-.16,2.62-2.07,7.29-4.08,9.1l-19.41,17.49c-98.7,88.93-215.71,154.51-344.24,189.17-.84.23-3.61,1.9-3.42,2.58l.64,2.33-431.5.02c.73-.17-1.35-5.19-2.72-5.56-17.03-4.57-39.64-11.7-56.49-18.22l-20.59-7.97-15.68-6.3-16.82-7.28-19.33-8.41c-12.95-5.63-24.48-11.73-37.08-18.49-47.99-25.77-91.82-55.9-134.45-89.7-4.61-3.66-9.27-6.78-13.37-10.53l-30.43-27.8-11.69-10.39c-3.1-2.75-5.42-6.41-5.34-10.05h1165.99Z"/>
</svg>